<?xml version="1.0" standalone="no"?>
<!DOCTYPE svg PUBLIC "-//W3C//DTD SVG 20010904//EN"
 "http://www.w3.org/TR/2001/REC-SVG-20010904/DTD/svg10.dtd">
<svg version="1.0" xmlns="http://www.w3.org/2000/svg"
 width="478.000000pt" height="478.000000pt" viewBox="0 0 478.000000 478.000000"
 preserveAspectRatio="xMidYMid meet">

<g transform="translate(0.000000,478.000000) scale(0.100000,-0.100000)"
fill="#000000" stroke="none">
<path d="M430 4768 c0 -8 7 -24 16 -37 14 -19 23 -22 51 -18 20 4 54 0 80 -9
53 -18 116 -8 121 18 5 24 -34 58 -65 57 -27 0 -26 -1 7 -12 39 -13 59 -54 21
-44 -11 2 -22 0 -24 -6 -2 -7 -22 -7 -64 2 -34 8 -66 10 -72 7 -14 -9 -51 11
-51 29 0 7 -4 17 -10 20 -5 3 -10 0 -10 -7z"/>
<path d="M867 4773 c-9 -8 -9 -92 0 -162 6 -53 6 -54 60 -77 42 -19 71 -24
137 -24 l84 0 63 48 c102 76 159 135 159 164 0 15 3 33 6 42 3 9 1 16 -5 16
-6 0 -11 -12 -11 -27 0 -16 -9 -42 -20 -60 -21 -35 -159 -149 -198 -164 -43
-16 -107 -10 -158 16 -27 14 -59 25 -71 25 -29 0 -38 30 -38 133 0 42 0 77 -1
77 0 0 -4 -3 -7 -7z"/>
<path d="M932 4751 c-15 -32 -15 -84 0 -99 21 -21 55 -13 80 17 22 28 78 69
78 58 0 -20 -47 -79 -80 -101 -63 -42 -54 -59 38 -72 37 -5 51 -2 61 10 7 9
24 16 37 16 16 0 28 8 35 23 8 18 17 23 35 19 19 -3 27 2 41 29 10 18 33 46
51 63 31 29 43 66 21 66 -5 0 -7 -5 -4 -11 8 -12 -23 -49 -42 -49 -7 0 -13 7
-13 16 0 8 -4 13 -9 10 -5 -3 -7 -23 -4 -44 4 -28 1 -42 -12 -52 -14 -12 -18
-12 -25 0 -7 12 -11 12 -25 0 -10 -8 -21 -25 -26 -38 -5 -13 -15 -22 -22 -20
-17 6 -21 49 -5 60 9 7 8 8 -7 6 -15 -2 -21 -12 -23 -40 -4 -53 -22 -63 -77
-48 -25 7 -45 16 -45 21 0 5 17 20 38 34 21 14 46 41 55 60 16 34 19 35 57 29
28 -5 40 -3 40 5 0 8 -8 10 -22 5 l-23 -7 20 24 c11 13 25 27 30 31 26 20 -9
5 -41 -17 -20 -14 -41 -25 -45 -25 -17 0 -9 19 13 34 12 9 17 16 11 16 -12 0
-38 -22 -115 -97 -41 -40 -64 -39 -74 3 -9 35 4 55 43 68 46 16 47 21 4 21
-30 0 -40 -4 -49 -24z"/>
<path d="M1710 4775 c0 -20 48 -100 72 -120 32 -27 85 -34 106 -13 14 14 16
124 3 133 -6 3 -7 -17 -4 -50 7 -67 -7 -90 -50 -81 -17 3 -37 12 -45 18 -22
18 -62 85 -62 103 0 8 -4 15 -10 15 -5 0 -10 -2 -10 -5z"/>
<path d="M2334 4764 c6 -18 3 -21 -19 -16 -32 6 -34 -18 -2 -44 22 -19 22 -19
5 2 -25 29 -22 37 12 29 33 -7 37 0 14 30 -16 20 -16 20 -10 -1z"/>
<path d="M2432 4755 c-7 -14 -12 -52 -12 -83 1 -69 33 -122 96 -157 35 -20 47
-22 89 -14 49 9 137 65 131 84 -1 5 -17 12 -35 16 -41 9 -48 16 -34 38 9 14 9
21 0 30 -15 15 -32 14 -19 -2 6 -7 9 -23 5 -35 -4 -19 0 -25 26 -35 37 -14 39
-22 6 -43 -30 -19 -73 -12 -105 18 -14 13 -21 16 -18 7 2 -8 22 -23 44 -34
l39 -20 -29 -3 c-19 -2 -36 4 -52 19 -27 25 -33 20 -8 -6 29 -29 5 -29 -42 1
-54 33 -84 82 -84 136 0 40 12 47 40 25 22 -17 50 -64 50 -82 0 -13 2 -14 14
-3 10 9 11 17 4 25 -7 9 -5 18 9 30 10 10 13 14 7 10 -10 -6 -12 4 -10 45 2
29 2 40 -1 23 -8 -58 -15 -61 -29 -10 -12 47 -13 48 -9 10 l4 -40 -17 37 c-20
44 -44 49 -60 13z m47 -17 c14 -39 10 -43 -18 -21 -15 12 -20 24 -16 36 10 26
22 21 34 -15z"/>
<path d="M2606 4759 c16 -17 16 -22 4 -29 -8 -6 -18 -10 -22 -10 -11 0 -10
-30 1 -30 5 0 18 -3 28 -6 16 -6 16 -5 -2 9 -19 15 -19 16 -1 30 16 12 17 16
5 35 -8 12 -18 22 -23 22 -5 0 -1 -9 10 -21z"/>
<path d="M3045 4758 c13 -42 36 -70 71 -84 31 -13 39 -13 69 2 51 24 97 104
60 104 -8 0 -15 -4 -15 -9 0 -18 -65 -72 -85 -69 -11 2 -30 21 -42 43 -12 22
-23 33 -23 24 0 -9 11 -33 25 -53 21 -32 22 -35 5 -26 -25 13 -50 50 -50 72 0
10 -5 18 -11 18 -6 0 -8 -9 -4 -22z m170 -48 c-3 -5 -12 -10 -18 -10 -7 0 -6
4 3 10 19 12 23 12 15 0z"/>
<path d="M3449 4753 c-6 -15 -18 -35 -28 -45 -22 -19 -37 -86 -23 -100 6 -6
27 -2 57 11 57 25 55 25 55 6 0 -8 7 -15 15 -15 26 0 16 -20 -20 -41 -41 -25
-45 -51 -10 -67 33 -15 60 -15 85 0 15 10 22 10 31 1 15 -15 49 1 49 22 0 8 6
12 14 9 22 -8 56 14 56 36 0 16 5 19 30 14 27 -6 31 -3 45 31 9 20 31 52 50
71 24 24 35 44 35 64 0 17 -4 30 -9 30 -5 0 -7 -9 -4 -20 6 -22 -32 -80 -52
-80 -8 0 -19 -18 -25 -40 -13 -47 -23 -55 -50 -40 -18 10 -22 7 -31 -19 -9
-27 -15 -30 -42 -28 -26 2 -33 -2 -35 -20 -4 -25 -12 -29 -29 -12 -7 7 -21 5
-45 -7 -33 -15 -37 -15 -63 2 -25 16 -26 19 -10 29 39 23 65 47 65 61 0 8 -4
14 -10 14 -23 0 -7 19 28 33 21 8 44 22 51 31 18 21 8 20 -31 -4 -18 -11 -49
-20 -68 -20 -19 0 -48 -9 -65 -20 -32 -21 -65 -26 -65 -11 0 6 5 13 10 16 6 4
10 12 9 18 -3 27 3 35 41 62 22 15 40 32 40 38 0 5 -8 3 -17 -4 -15 -12 -16
-12 -10 4 3 9 2 17 -4 17 -5 0 -14 -12 -20 -27z"/>
<path d="M3620 4770 c0 -12 28 -25 36 -17 3 3 -4 10 -15 17 -15 7 -21 7 -21 0z"/>
<path d="M3702 4765 c3 -16 10 -19 38 -17 36 2 94 22 87 29 -2 2 -28 -2 -57
-8 -43 -9 -54 -9 -62 2 -7 11 -8 9 -6 -6z"/>
<path d="M4250 4760 c-1 -14 -1 -36 0 -50 3 -37 79 -179 103 -192 11 -5 48
-11 83 -12 50 -1 67 3 86 20 13 11 40 31 60 43 45 27 99 126 97 180 l-1 36 -8
-41 c-21 -103 -102 -194 -163 -182 -30 6 -37 -6 -10 -16 11 -5 13 -10 6 -17
-18 -18 -52 0 -59 29 -8 42 -19 57 -43 60 -26 4 -46 44 -56 115 -5 29 -12 46
-19 44 -23 -7 -17 -61 15 -139 29 -69 39 -82 72 -100 21 -10 36 -22 33 -26 -4
-3 -12 0 -18 6 -7 7 -24 12 -38 12 -28 0 -70 35 -50 42 7 2 8 11 4 22 -7 19
-8 19 -14 0 -6 -15 -12 -9 -35 36 -15 30 -31 77 -35 105 -4 28 -9 39 -10 25z
m170 -187 c0 -21 -3 -22 -20 -13 -11 6 -20 19 -20 29 0 14 5 18 20 14 13 -4
20 -14 20 -30z"/>
<path d="M4275 4767 c-9 -21 13 -97 27 -97 5 0 6 10 2 23 -4 12 -10 38 -14 57
-6 28 -8 32 -15 17z"/>
<path d="M4374 4732 c2 -29 9 -59 16 -65 10 -10 11 -7 4 13 -4 14 -11 43 -15
65 -7 37 -8 36 -5 -13z"/>
<path d="M4420 4773 c0 -6 6 -16 14 -23 8 -6 17 -21 19 -33 4 -19 4 -19 6 4 0
15 -8 34 -19 44 -11 10 -20 13 -20 8z"/>
<path d="M4515 4770 c-3 -5 -3 -21 1 -35 4 -15 1 -31 -6 -40 -8 -10 -9 -15 -1
-15 10 0 15 14 24 73 4 26 -6 37 -18 17z"/>
<path d="M4586 4763 c-7 -22 -3 -123 4 -116 3 3 5 30 5 61 0 55 1 57 30 63
l30 7 -32 1 c-22 1 -33 -4 -37 -16z"/>
<path d="M2780 4761 c0 -6 4 -13 10 -16 6 -3 7 1 4 9 -7 18 -14 21 -14 7z"/>
<path d="M3484 4715 c-20 -19 -35 -38 -32 -41 3 -2 18 9 34 26 32 34 46 37 64
15 7 -8 20 -15 29 -15 11 0 7 8 -14 25 -16 13 -33 24 -37 25 -4 0 -23 -16 -44
-35z"/>
<path d="M3810 4725 c-7 -8 -22 -15 -34 -15 -12 0 -27 -5 -33 -11 -8 -8 -17
-8 -33 1 -12 6 -24 9 -27 7 -2 -3 5 -10 16 -16 39 -21 131 7 131 40 0 13 -6
11 -20 -6z"/>
<path d="M2801 4674 c1 -21 3 -31 6 -21 3 12 10 16 21 12 13 -5 12 -1 -3 17
-11 13 -21 25 -22 27 -2 2 -2 -13 -2 -35z"/>
<path d="M4030 4680 c-27 -27 -25 -62 5 -98 28 -34 103 -72 140 -72 21 0 25 5
25 30 0 66 -74 160 -126 160 -13 0 -33 -9 -44 -20z m98 -24 c13 -11 31 -34 39
-49 13 -26 13 -31 -4 -50 -10 -12 -19 -23 -19 -25 -4 -7 -80 37 -95 54 -29 33
-32 61 -9 84 24 24 52 20 88 -14z m60 -117 c-2 -6 -8 -10 -13 -10 -5 0 -11 4
-13 10 -2 6 4 11 13 11 9 0 15 -5 13 -11z"/>
<path d="M2084 4666 c-57 -27 -124 -103 -124 -142 0 -31 26 -54 60 -54 38 0
107 77 115 129 4 20 9 48 11 64 7 33 3 33 -62 3z m36 -48 c-8 -53 -19 -75 -58
-112 -35 -33 -76 -31 -87 5 -12 36 85 149 129 149 21 0 22 -3 16 -42z"/>
<path d="M2331 4669 c-1 -9 -8 -19 -16 -23 -22 -8 -19 -19 15 -54 17 -18 30
-29 30 -25 0 4 -12 20 -27 35 -25 27 -26 29 -9 41 11 8 16 20 13 28 -4 11 -6
10 -6 -2z"/>
<path d="M62 4632 c-61 -65 -82 -212 -40 -279 11 -20 36 -42 54 -49 71 -30
191 -7 258 48 33 27 36 34 36 84 0 30 7 71 15 91 18 43 19 87 3 101 -22 17
-90 23 -155 14 -46 -6 -70 -5 -94 5 -43 18 -47 17 -77 -15z m78 -4 c0 -6 -3
-8 -6 -5 -12 12 -44 -13 -44 -34 0 -28 34 -101 57 -121 10 -8 27 -18 38 -22
11 -3 31 -16 45 -27 l25 -20 -24 7 c-44 12 -121 65 -135 93 -17 32 -31 116
-21 130 9 15 65 14 65 -1z m42 -25 c-35 -14 -61 -27 -59 -29 2 -3 26 5 53 17
51 22 151 36 179 26 13 -6 12 -12 -10 -47 -28 -44 -32 -58 -12 -41 8 6 18 7
22 3 5 -4 6 1 2 10 -3 10 0 19 10 22 21 8 10 -34 -22 -90 -41 -70 -49 -72
-111 -39 -30 16 -54 35 -54 41 0 7 24 34 53 60 28 26 43 41 32 34 -11 -8 -39
-32 -62 -54 -32 -30 -46 -37 -54 -29 -15 15 -7 26 48 62 25 17 42 31 36 31 -5
0 -29 -13 -51 -30 -45 -32 -62 -37 -63 -17 0 6 -2 20 -4 29 -4 20 38 54 75 61
54 10 52 5 -8 -20z m-94 -120 c11 -20 85 -71 127 -87 19 -7 19 -8 -5 -21 -18
-10 -20 -14 -8 -15 9 0 20 5 23 10 8 13 45 13 45 0 0 -6 -19 -19 -42 -30 -24
-10 -36 -19 -28 -19 8 -1 30 8 48 19 32 20 85 29 67 11 -16 -14 -124 -51 -148
-50 -21 0 -21 1 -2 10 14 7 6 8 -30 4 -54 -5 -66 1 -103 49 -29 38 -30 117 -1
183 l22 48 12 -45 c6 -25 17 -55 23 -67z m270 -65 c-3 -36 -27 -46 -77 -32
-24 7 -24 8 14 13 32 5 41 11 43 29 5 35 24 26 20 -10z"/>
<path d="M326 4493 c-6 -14 -5 -15 5 -6 7 7 10 15 7 18 -3 3 -9 -2 -12 -12z"/>
<path d="M40 4479 c0 -5 5 -7 10 -4 6 3 10 8 10 11 0 2 -4 4 -10 4 -5 0 -10
-5 -10 -11z"/>
<path d="M1481 4634 c-75 -41 -91 -85 -46 -129 35 -36 59 -31 115 21 105 98
55 177 -69 108z m74 -4 c-5 -15 -1 -22 16 -28 22 -8 21 -9 -16 -51 -53 -58
-70 -66 -101 -46 -20 13 -25 23 -22 52 3 33 8 39 58 65 65 33 73 34 65 8z m35
-5 c0 -8 -7 -15 -15 -15 -16 0 -20 12 -8 23 11 12 23 8 23 -8z"/>
<path d="M3614 4621 c4 -18 -2 -31 -21 -48 -33 -31 -23 -42 11 -12 28 24 32
45 15 69 -8 12 -10 10 -5 -9z"/>
<path d="M2850 4584 c-32 -40 -58 -53 -73 -38 -3 4 1 18 9 33 15 25 15 25 -1
4 -10 -13 -24 -23 -31 -23 -23 0 -16 -18 9 -22 12 -2 21 -9 19 -16 -2 -9 4
-11 17 -7 13 4 24 -1 35 -17 9 -12 16 -17 16 -11 0 6 -7 16 -15 23 -22 18 -19
25 21 70 20 22 35 42 33 44 -2 2 -20 -16 -39 -40z"/>
<path d="M2711 4521 c-13 -3 -29 -15 -35 -26 -6 -11 -15 -23 -21 -27 -6 -5 -5
-8 3 -8 7 0 17 11 22 25 6 15 17 25 29 25 11 0 23 5 26 10 3 6 5 10 3 9 -2 -1
-14 -4 -27 -8z"/>
<path d="M582 4508 c-17 -17 -15 -45 11 -112 25 -69 92 -146 126 -146 37 0 71
43 71 90 0 36 -6 47 -49 90 -43 43 -115 90 -139 90 -4 0 -13 -5 -20 -12z m89
-39 c67 -43 109 -93 109 -130 0 -39 -24 -48 -50 -18 -30 36 -121 179 -113 179
3 0 28 -14 54 -31z m0 -87 c32 -48 55 -89 53 -91 -13 -14 -89 89 -114 153 -18
49 5 25 61 -62z m17 -84 c14 -16 21 -28 15 -28 -17 0 -65 52 -79 87 -21 49
-17 52 12 8 15 -22 38 -52 52 -67z"/>
<path d="M2368 4503 c7 -3 16 -2 19 1 4 3 -2 6 -13 5 -11 0 -14 -3 -6 -6z"/>
<path d="M2418 4485 c3 -18 10 -25 26 -24 17 1 17 2 4 6 -10 2 -18 13 -18 24
0 10 -4 19 -9 19 -4 0 -6 -11 -3 -25z"/>
<path d="M2766 4491 c-4 -5 -4 -22 0 -36 4 -17 9 -22 14 -15 9 14 57 -41 77
-87 11 -28 11 -38 0 -65 -19 -44 -40 -61 -119 -96 l-66 -30 -6 21 c-3 12 -12
31 -21 42 -10 14 -13 15 -9 4 9 -29 -13 -30 -44 -4 -38 32 -67 101 -51 121 6
8 15 11 20 8 5 -3 9 5 9 18 -1 21 -2 22 -14 6 -7 -10 -20 -18 -28 -18 -8 0
-22 -16 -31 -36 -10 -19 -22 -32 -27 -29 -6 3 -10 -1 -10 -9 0 -25 14 -19 35
17 l20 32 3 -27 c2 -15 20 -46 40 -69 43 -48 45 -60 15 -74 -13 -5 -23 -13
-23 -17 0 -12 9 -9 39 13 27 20 30 20 55 4 24 -16 28 -16 71 0 37 14 48 15 60
5 13 -11 14 -10 10 2 -4 9 10 26 34 46 53 43 69 93 47 146 -9 21 -16 39 -16
40 0 0 18 1 39 1 36 1 39 -1 29 -18 -11 -21 -12 -20 27 -40 l30 -15 -27 -11
c-36 -14 -42 -27 -27 -63 10 -25 10 -31 -2 -39 -12 -7 -11 -9 2 -9 25 0 28 10
13 45 -18 44 -19 41 16 55 37 15 38 27 5 42 -27 12 -32 36 -12 57 10 11 5 12
-26 7 -33 -6 -38 -4 -47 16 -6 17 -9 19 -9 6 -1 -10 -4 -18 -8 -18 -14 1 -46
29 -64 56 -10 15 -19 22 -23 15z"/>
<path d="M2475 4480 c-3 -5 -2 -10 4 -10 5 0 1 -24 -10 -52 -10 -29 -18 -66
-18 -83 2 -26 2 -27 6 -5 8 56 14 70 40 101 16 18 22 30 16 25 -7 -4 -13 -2
-13 3 0 14 4 14 45 -3 29 -13 35 -13 46 0 6 8 21 14 33 14 20 1 20 1 2 12 -16
9 -22 6 -36 -12 l-18 -23 -13 21 c-15 23 -72 31 -84 12z"/>
<path d="M3235 4429 c-43 -12 -105 -67 -121 -105 -18 -44 -18 -146 1 -191 21
-50 98 -138 134 -153 26 -10 35 -10 63 7 47 27 48 59 4 123 -30 43 -36 61 -36
102 0 44 5 56 35 89 20 23 35 50 35 64 0 24 -31 65 -49 65 -5 0 -15 2 -23 4
-7 2 -26 0 -43 -5z m-32 -41 c-53 -59 -66 -130 -39 -220 19 -60 31 -83 74
-135 19 -24 29 -43 21 -43 -21 0 -110 101 -130 148 -37 85 -20 181 41 236 45
40 65 48 33 14z m111 16 c27 -10 19 -62 -14 -100 -54 -62 -52 -120 5 -203 38
-55 43 -71 21 -71 -23 0 -87 96 -93 140 -3 22 -10 40 -14 40 -24 0 3 -80 47
-141 37 -51 40 -59 22 -59 -20 0 -79 77 -98 128 -10 26 -21 68 -24 94 -15 104
69 202 148 172z"/>
<path d="M2624 4419 c-3 -6 -17 -8 -30 -5 -15 4 -24 2 -24 -5 0 -7 3 -9 7 -6
10 11 33 -14 34 -37 1 -23 4 -17 13 27 l7 28 37 -31 c38 -32 72 -39 72 -16 0
9 8 12 25 8 19 -3 25 0 25 14 0 16 -2 17 -10 4 -8 -12 -13 -13 -30 -2 -18 11
-20 10 -20 -8 0 -11 -3 -20 -8 -20 -11 0 -56 32 -65 47 -10 16 -23 17 -33 2z"/>
<path d="M1753 4380 c-85 -19 -142 -89 -156 -190 -3 -25 -9 -53 -12 -61 -4
-12 13 -27 63 -58 63 -38 74 -41 138 -41 121 0 163 45 163 175 0 82 -16 116
-67 149 -43 28 -84 36 -129 26z m24 -27 c-61 -21 -111 -65 -142 -128 l-26 -50
6 40 c13 82 93 156 170 154 l40 0 -48 -16z m99 -18 c24 -10 39 -25 50 -51 8
-20 13 -39 10 -41 -3 -3 -21 8 -41 26 -29 26 -44 31 -84 31 -72 0 -99 -25
-140 -127 l-20 -50 45 -34 c41 -31 55 -49 36 -49 -5 0 -36 18 -70 40 l-61 39
31 68 c44 97 84 137 153 154 45 11 53 10 91 -6z m8 -76 c49 -43 61 -90 37
-145 -21 -47 -61 -74 -110 -74 -19 0 -47 14 -83 42 -29 22 -54 42 -55 42 -1 1
4 21 10 46 7 26 27 60 48 82 30 32 42 38 77 38 32 0 49 -7 76 -31z"/>
<path d="M1205 4315 c-38 -40 -50 -91 -37 -153 19 -82 63 -120 129 -107 32 6
52 25 99 99 22 34 23 40 11 55 -8 9 -26 39 -41 68 -29 58 -49 73 -97 73 -23 0
-40 -9 -64 -35z m99 19 c9 -4 34 -37 56 -75 l40 -68 -34 -54 c-42 -65 -76 -82
-125 -61 -38 16 -61 64 -61 129 0 54 12 82 48 112 28 23 48 28 76 17z"/>
<path d="M4340 4331 c-31 -5 -35 -10 -38 -39 -8 -82 161 -242 256 -242 76 0
122 41 122 109 0 95 -61 143 -209 167 -47 8 -88 13 -91 13 -3 -1 -21 -4 -40
-8z m240 -48 c39 -20 60 -38 72 -62 21 -42 16 -51 -14 -25 l-23 19 23 -26 c34
-39 26 -43 -23 -9 -25 17 -45 29 -45 26 0 -3 20 -19 45 -36 47 -33 57 -50 28
-50 -15 0 -16 -2 -4 -9 12 -8 10 -11 -11 -16 -35 -9 -88 7 -148 44 -62 38 -65
33 -6 -9 25 -16 68 -35 96 -42 55 -13 50 -28 -11 -28 -43 0 -108 39 -169 104
-63 66 -98 132 -47 90 14 -12 12 -8 -6 12 -32 36 -27 46 22 39 29 -4 32 -3 16
5 -15 8 3 9 65 5 66 -4 97 -11 140 -32z"/>
<path d="M4362 4264 c10 -10 20 -16 22 -13 3 3 -5 11 -17 18 -21 13 -21 12 -5
-5z"/>
<path d="M4527 4259 c7 -7 15 -10 18 -7 3 3 -2 9 -12 12 -14 6 -15 5 -6 -5z"/>
<path d="M4520 4231 c14 -11 30 -21 35 -21 11 0 -7 14 -40 31 -13 7 -12 3 5
-10z"/>
<path d="M4450 4196 c0 -3 9 -10 20 -16 11 -6 20 -8 20 -6 0 3 -9 10 -20 16
-11 6 -20 8 -20 6z"/>
<path d="M4540 4145 c25 -13 54 -24 65 -24 16 1 15 2 -5 8 -14 5 -40 15 -57
24 -18 10 -36 17 -40 17 -4 -1 12 -12 37 -25z"/>
<path d="M2130 4323 c-46 -17 -51 -69 -14 -146 31 -62 28 -89 -13 -137 -18
-22 -28 -47 -31 -81 -4 -43 -1 -54 19 -75 19 -21 30 -25 57 -20 42 6 114 41
135 64 25 28 57 119 57 163 0 68 -49 159 -109 202 -49 36 -69 42 -101 30z m91
-40 c39 -28 57 -50 80 -100 35 -76 36 -100 8 -173 -26 -68 -41 -86 -96 -110
-66 -29 -87 -29 -91 -1 -3 19 -6 21 -13 10 -8 -12 -11 -12 -19 1 -15 21 -3 91
19 115 48 53 52 90 15 169 -21 46 -24 61 -16 84 l10 27 1 -26 c1 -24 19 -56
72 -128 18 -25 21 -38 16 -81 -4 -29 -12 -58 -18 -66 -7 -8 -9 -17 -6 -20 12
-12 37 58 37 105 0 42 -6 56 -40 99 -45 58 -58 95 -40 117 18 21 24 19 81 -22z"/>
<path d="M4005 4293 c-22 -21 -17 -111 9 -165 29 -60 90 -121 150 -152 53 -27
57 -28 81 -12 24 16 29 34 25 85 -2 30 -60 109 -142 195 -66 69 -93 80 -123
49z m124 -70 c39 -43 49 -62 45 -79 -8 -30 23 -81 59 -97 52 -23 21 -88 -36
-73 -37 9 -99 75 -92 97 4 12 -1 22 -15 29 -12 6 -20 21 -20 35 0 13 -11 41
-25 61 -28 41 -30 56 -15 85 15 26 35 14 99 -58z"/>
<path d="M2576 4287 c3 -10 9 -15 12 -12 3 3 0 11 -7 18 -10 9 -11 8 -5 -6z"/>
<path d="M3600 4279 c-54 -31 -83 -81 -88 -149 -8 -113 57 -183 172 -184 50
-1 69 4 98 23 63 44 78 76 78 172 l0 84 -61 38 c-73 45 -140 50 -199 16z m149
-3 c15 -8 33 -22 40 -30 11 -13 9 -14 -18 -6 -27 7 -31 6 -31 -10 0 -21 38
-33 76 -24 25 7 27 5 20 -22 -20 -83 -28 -104 -52 -140 -20 -29 -21 -34 -7
-21 18 16 34 46 59 112 7 19 8 19 12 -4 13 -78 -62 -172 -136 -171 -14 1 -12
4 7 20 15 13 18 20 9 20 -18 0 -39 58 -32 86 4 15 -2 27 -23 44 l-28 22 24 19
c13 10 20 19 15 19 -4 0 -18 -10 -31 -21 -20 -20 -23 -20 -29 -5 -3 9 0 24 7
34 11 13 9 13 -9 -2 -29 -25 -41 -13 -16 16 19 23 19 23 -2 6 -19 -17 -54 -25
-54 -12 0 20 28 48 63 65 50 22 98 24 136 5z m-139 -127 c42 -52 52 -60 66
-55 18 7 17 -4 -1 -28 -11 -14 -12 -23 -4 -33 6 -7 8 -13 4 -13 -4 0 -1 -7 6
-17 12 -14 12 -17 0 -21 -11 -4 -11 -6 0 -13 30 -19 -36 -9 -78 12 -45 22 -79
69 -69 95 3 9 1 12 -4 9 -6 -3 -10 1 -10 10 0 12 5 15 18 10 9 -4 25 -8 34
-10 9 -2 26 -8 37 -14 12 -7 22 -7 25 -2 6 9 -27 22 -85 35 -19 4 -25 11 -24
28 1 16 7 22 20 20 10 -2 14 1 10 7 -15 26 33 8 55 -20z"/>
<path d="M3705 4200 c-3 -6 1 -7 9 -4 18 7 21 14 7 14 -6 0 -13 -4 -16 -10z"/>
<path d="M3600 4121 c0 -5 7 -11 15 -15 8 -3 15 -1 15 3 0 5 -7 11 -15 15 -8
3 -15 1 -15 -3z"/>
<path d="M2506 4245 c-3 -9 -6 -22 -5 -28 0 -7 5 -1 10 12 5 13 8 26 5 28 -2
2 -6 -3 -10 -12z"/>
<path d="M370 4183 c-47 -60 -2 -247 67 -279 18 -9 38 -25 44 -35 14 -27 29
-24 29 6 0 13 7 43 16 65 28 69 0 194 -55 249 -30 30 -75 27 -101 -6z m86 2
c28 -19 52 -70 64 -137 9 -43 7 -62 -7 -103 -9 -27 -18 -51 -19 -53 -1 -1 -19
7 -42 19 -43 23 -63 57 -83 142 -25 102 24 177 87 132z"/>
<path d="M2525 4199 c-4 -6 -13 -8 -20 -5 -7 2 -16 -2 -19 -10 -7 -18 4 -18
30 1 12 8 24 11 28 8 3 -3 6 -1 6 5 0 15 -17 16 -25 1z"/>
<path d="M2870 4179 c0 -15 -5 -19 -15 -15 -12 4 -13 2 -2 -14 18 -29 27 -24
27 15 0 19 -2 35 -5 35 -3 0 -5 -9 -5 -21z"/>
<path d="M882 4181 c20 -4 48 -15 62 -25 30 -19 36 -43 9 -30 -10 5 -55 8
-100 8 -51 -1 -80 2 -77 8 4 6 -5 3 -19 -7 -52 -34 -64 -136 -21 -182 l26 -28
-21 29 c-12 16 -21 43 -21 60 0 34 26 80 40 71 4 -3 11 2 14 11 10 27 106 14
150 -20 20 -15 33 -21 31 -13 -8 18 -56 45 -101 56 l-39 9 55 1 c53 1 92 -14
112 -43 13 -18 9 -68 -3 -60 -8 5 -10 0 -6 -17 7 -27 -14 -75 -30 -72 -6 1
-14 -4 -17 -12 -8 -22 8 -18 32 8 87 92 31 261 -85 256 -24 -1 -23 -2 9 -8z"/>
<path d="M2808 4173 c7 -3 16 -2 19 1 4 3 -2 6 -13 5 -11 0 -14 -3 -6 -6z"/>
<path d="M795 4160 c-3 -6 1 -7 9 -4 18 7 21 14 7 14 -6 0 -13 -4 -16 -10z"/>
<path d="M780 4096 c0 -2 7 -7 16 -10 8 -3 12 -2 9 4 -6 10 -25 14 -25 6z"/>
<path d="M773 4035 c0 -22 2 -30 4 -17 2 12 2 30 0 40 -3 9 -5 -1 -4 -23z"/>
<path d="M884 4017 c20 -27 36 -53 36 -59 0 -6 3 -9 6 -6 9 9 -21 60 -51 88
-23 20 -21 16 9 -23z"/>
<path d="M10 4000 c-11 -7 -5 -10 23 -10 73 0 187 -75 207 -136 16 -47 5 -121
-20 -134 -37 -20 -47 -12 -54 42 -10 74 -30 108 -64 108 -41 0 -102 -70 -102
-116 0 -10 10 2 22 26 23 44 54 64 62 38 2 -7 9 -32 15 -55 10 -37 17 -44 49
-54 83 -24 115 6 109 103 -4 78 -38 120 -130 164 -76 36 -93 40 -117 24z m120
-160 c15 -28 29 -109 20 -115 -13 -8 -38 29 -45 68 -4 21 -14 41 -22 44 -12 5
-12 7 -1 14 21 14 37 10 48 -11z"/>
<path d="M4725 3971 c-68 -31 -105 -86 -105 -156 0 -97 73 -155 138 -109 12 8
22 22 22 31 0 12 -4 11 -17 -5 -27 -32 -67 -38 -91 -14 -17 17 -18 27 -11 70
4 27 15 64 24 81 8 17 12 31 7 31 -12 0 -42 -67 -42 -95 0 -14 -4 -25 -10 -25
-14 0 -12 55 4 93 17 40 51 72 99 92 20 8 37 17 37 20 0 9 -14 5 -55 -14z"/>
<path d="M2652 3964 c-86 -60 81 -224 227 -224 57 0 125 33 149 72 14 23 14
29 1 44 -18 22 -67 42 -130 54 -27 5 -81 23 -119 40 -78 34 -97 36 -128 14z
m127 -29 c42 -21 119 -45 149 -45 28 0 30 -30 2 -37 -32 -8 -23 -27 22 -47
l43 -18 -30 -16 c-37 -19 -129 -21 -172 -3 -40 16 -43 33 -7 29 47 -5 39 21
-13 43 -39 17 -52 18 -67 9 -16 -10 -22 -9 -38 11 -68 88 -1 132 111 74z"/>
<path d="M780 3930 c-21 -13 30 -30 88 -29 l47 2 -43 6 c-23 4 -48 13 -54 19
-14 14 -19 15 -38 2z"/>
<path d="M1346 3913 c-4 -5 -26 -12 -48 -18 -72 -18 -100 -84 -93 -220 7 -124
71 -267 140 -314 30 -21 57 -30 106 -34 l66 -6 12 54 c15 67 6 104 -43 175
-39 57 -42 72 -24 165 13 76 6 101 -51 163 -39 42 -51 49 -65 35z m-23 -39
c-39 -27 -66 -54 -56 -54 6 0 16 7 23 15 18 21 35 19 19 -2 -7 -10 4 -2 24 16
42 39 45 34 17 -24 -11 -22 -19 -52 -20 -67 0 -31 -11 -36 -30 -13 -7 9 -10
25 -6 41 5 17 3 23 -4 19 -5 -3 -10 -17 -10 -30 0 -18 -4 -23 -16 -18 -10 4
-14 14 -11 29 2 13 0 22 -6 21 -19 -4 -17 20 3 46 19 23 40 33 80 35 10 1 7
-4 -7 -14z m104 -36 c29 -28 32 -83 4 -98 -31 -16 -41 -12 -42 18 l-1 27 -7
-30 c-8 -41 -41 -47 -41 -8 0 39 32 113 49 113 8 0 25 -10 38 -22z m-187 -84
c0 -8 -4 -14 -10 -14 -5 0 -10 9 -10 21 0 11 5 17 10 14 6 -3 10 -13 10 -21z
m40 -35 c0 -10 -5 -19 -11 -19 -8 0 -8 -5 1 -15 10 -12 9 -15 -5 -15 -12 0
-16 6 -12 19 2 10 1 25 -4 32 -10 17 -2 29 16 22 8 -3 15 -14 15 -24z m-49 4
c0 -5 2 -23 5 -42 4 -29 2 -32 -11 -21 -17 14 -21 70 -5 70 6 0 10 -3 11 -7z
m83 1 c9 -3 16 -15 16 -26 0 -14 -5 -18 -16 -14 -9 3 -18 6 -20 6 -2 0 -4 9
-4 20 0 22 1 23 24 14z m136 -12 c0 -24 -28 -62 -46 -62 -22 0 -19 67 4 73 33
9 42 7 42 -11z m-76 -10 c8 -13 -11 -35 -23 -28 -16 10 -14 36 3 36 8 0 17 -4
20 -8z m-34 -52 c0 -15 -37 -12 -43 4 -3 8 -3 17 0 20 8 7 43 -12 43 -24z
m-53 -26 c-2 -13 0 -24 4 -24 5 0 9 -7 9 -16 0 -14 -3 -14 -15 -4 -9 7 -14 19
-11 27 3 7 1 13 -4 13 -6 0 -10 9 -10 20 0 14 5 18 16 13 10 -4 14 -14 11 -29z
m93 21 c0 -8 -7 -15 -15 -15 -8 0 -15 7 -15 15 0 8 7 15 15 15 8 0 15 -7 15
-15z m64 -32 c12 -67 11 -86 -1 -90 -7 -3 -13 2 -13 11 0 9 -4 16 -9 16 -5 0
-12 13 -16 29 -5 22 -10 28 -26 24 -30 -8 -22 10 14 28 45 23 44 23 51 -18z
m-194 7 c6 -10 9 -23 9 -27 -4 -15 13 -43 22 -37 6 3 16 0 24 -6 13 -10 15 -8
15 15 0 20 4 26 18 23 9 -2 17 -10 17 -18 0 -8 4 -21 9 -28 13 -22 0 -24 -60
-11 -50 11 -58 17 -70 46 -16 38 -18 63 -4 63 5 0 14 -9 20 -20z m98 -7 c6
-19 -35 -16 -42 3 -4 11 0 15 16 12 12 -2 23 -9 26 -15z m39 -37 c-3 -8 1 -17
10 -20 8 -4 13 -13 9 -21 -3 -8 -1 -15 4 -15 6 0 10 -4 10 -10 0 -5 -7 -10
-15 -10 -8 0 -19 16 -24 38 -14 47 -14 52 0 52 6 0 9 -6 6 -14z m-85 -64 c6
16 28 1 28 -19 0 -9 -6 -13 -15 -9 -17 6 -21 -9 -4 -19 5 -4 9 -14 7 -23 -2
-9 14 -32 35 -51 45 -41 41 -54 -6 -18 -28 21 -97 129 -97 152 0 4 11 0 24 -9
17 -11 26 -12 28 -4z m202 -16 c31 -65 13 -169 -23 -133 -10 9 -11 8 -5 -7 6
-16 4 -17 -14 -7 -11 6 -24 16 -27 21 -3 6 -12 10 -18 10 -7 0 -6 -4 3 -10 8
-5 11 -12 8 -15 -8 -9 -45 17 -64 44 -19 27 0 29 30 4 21 -18 21 -18 3 4 -14
16 -15 23 -6 29 8 4 23 -5 41 -25 32 -36 38 -32 7 7 -19 25 -19 27 -2 33 10 4
21 5 26 2 12 -7 8 12 -7 33 -10 13 -11 23 -4 31 18 22 35 15 52 -21z m-131 -4
c-2 -7 2 -12 7 -12 13 0 13 -27 1 -35 -5 -3 -17 9 -25 26 -20 40 -20 41 2 37
9 -2 16 -10 15 -16z m71 -23 c-7 -13 -31 -11 -40 2 -9 16 18 30 33 17 7 -6 10
-14 7 -19z m-96 -11 c14 -14 16 -28 2 -28 -5 0 -14 9 -20 20 -12 22 -1 27 18
8z"/>
<path d="M1392 3825 c0 -16 2 -22 5 -12 2 9 2 23 0 30 -3 6 -5 -1 -5 -18z"/>
<path d="M1470 3431 c0 -6 4 -13 10 -16 6 -3 7 1 4 9 -7 18 -14 21 -14 7z"/>
<path d="M1669 3830 c-35 -18 -74 -64 -67 -78 2 -4 19 -4 38 -1 31 6 32 7 8 8
-16 0 -28 5 -28 9 0 18 38 42 66 43 24 0 25 2 10 8 -18 7 -18 8 -2 14 40 15
74 7 100 -24 14 -17 26 -35 26 -41 0 -6 3 -9 6 -5 4 3 -3 22 -14 42 -12 19
-18 35 -14 35 18 0 55 -35 68 -64 9 -20 13 -25 14 -12 0 10 -15 33 -34 52 -30
30 -40 34 -87 34 -33 -1 -68 -8 -90 -20z"/>
<path d="M970 3799 c-84 -34 -143 -120 -144 -211 -1 -55 2 -62 29 -84 46 -37
105 -33 148 9 53 54 71 101 71 192 1 76 0 80 -21 83 -13 2 -23 8 -23 13 0 11
-28 11 -60 -2z m32 -59 c-4 -25 -12 -44 -16 -42 -12 4 -58 -107 -50 -119 3 -5
0 -8 -7 -7 -6 2 -14 -3 -17 -11 -3 -9 0 -11 8 -6 9 6 9 3 1 -13 -16 -30 -51
-39 -68 -16 -19 25 -16 102 6 149 20 44 68 91 116 111 36 15 37 12 27 -46z
m32 -18 c-18 -82 -27 -104 -50 -129 -20 -21 -24 -23 -18 -8 4 11 7 36 7 55 -1
26 1 30 7 15 6 -16 11 -7 25 42 10 35 21 60 26 57 5 -3 6 -17 3 -32z m33 -32
c-12 -110 -76 -200 -141 -200 l-31 0 57 53 c58 52 108 137 108 185 0 12 3 22
6 22 4 0 4 -27 1 -60z"/>
<path d="M3291 3764 c-31 -52 -41 -111 -32 -179 20 -138 89 -245 186 -291 59
-28 92 -30 121 -6 98 79 75 287 -47 426 -51 58 -104 86 -163 86 -40 0 -46 -3
-65 -36z m129 1 c7 -8 20 -15 29 -15 36 0 116 -107 146 -196 13 -39 15 -66 9
-134 -7 -87 -14 -86 -28 2 -10 57 -111 253 -155 301 -23 24 -38 47 -34 50 10
11 20 8 33 -8z m-58 -27 c15 -1 25 -5 22 -9 -2 -4 4 -13 13 -20 14 -12 16 -12
8 1 -5 10 -1 9 13 -3 31 -28 128 -224 142 -290 11 -46 11 -62 0 -89 -24 -59
-50 -59 -115 1 -22 20 -31 26 -21 13 33 -38 11 -34 -35 7 -41 36 -65 73 -99
156 -27 65 -20 248 9 231 5 -3 12 2 15 11 5 13 9 14 15 5 4 -6 19 -13 33 -14z"/>
<path d="M3292 3685 c0 -16 2 -22 5 -12 2 9 2 23 0 30 -3 6 -5 -1 -5 -18z"/>
<path d="M3415 3670 c3 -5 8 -10 11 -10 2 0 4 5 4 10 0 6 -5 10 -11 10 -5 0
-7 -4 -4 -10z"/>
<path d="M3287 3633 c-10 -9 -9 -41 1 -47 5 -3 9 8 9 24 0 33 -1 33 -10 23z"/>
<path d="M3351 3460 c14 -31 19 -36 19 -24 0 6 -7 19 -16 30 -14 18 -14 18 -3
-6z"/>
<path d="M3547 3379 c4 -13 8 -18 11 -10 2 7 -1 18 -6 23 -8 8 -9 4 -5 -13z"/>
<path d="M1776 3770 c26 -31 39 -56 48 -95 l7 -30 -33 31 c-18 16 -42 36 -53
44 -11 7 -1 -4 23 -26 55 -50 60 -76 21 -109 -17 -14 -40 -26 -52 -26 -17 -1
-18 -2 -5 -6 25 -6 109 38 118 62 4 11 4 28 -1 37 -5 9 -9 36 -10 60 -1 35 -2
38 -8 18 -7 -24 -8 -24 -14 -4 -4 11 -20 32 -35 45 l-27 24 21 -25z"/>
<path d="M4060 3782 c-97 -7 -167 -25 -212 -54 -26 -17 -48 -36 -48 -41 0 -6
10 -36 21 -68 15 -42 39 -76 80 -119 32 -33 62 -60 67 -60 6 0 40 -18 76 -40
36 -22 72 -40 79 -40 8 0 25 -9 39 -19 13 -11 55 -29 92 -41 65 -21 69 -22
111 -5 57 21 89 47 104 84 7 16 21 31 32 34 20 5 28 57 9 57 -5 0 -10 26 -10
58 -1 88 -31 140 -100 174 -52 25 -126 48 -160 50 -8 0 -21 6 -29 11 -15 13
-99 23 -151 19z m22 -34 l22 -22 -39 -13 c-34 -11 -41 -11 -57 3 -21 20 -23
40 -5 47 27 12 58 6 79 -15z m-87 -47 c-3 -2 -21 -10 -40 -17 -29 -10 -36 -9
-50 6 -19 21 -10 49 19 60 16 6 28 2 48 -18 15 -14 26 -28 23 -31z m199 51 c9
-15 -66 -33 -81 -20 -7 6 -13 14 -13 19 0 11 87 12 94 1z m154 -38 c35 -7 26
-22 -20 -32 -37 -8 -45 -6 -60 11 -34 38 -20 42 80 21z m-101 -21 c14 -21 13
-23 -24 -38 -53 -23 -87 3 -69 51 9 24 75 14 93 -13z m-352 -10 l23 -28 -26
-6 c-15 -4 -34 -10 -43 -13 -22 -9 -31 17 -19 49 12 33 35 32 65 -2z m240 -13
c20 -40 20 -40 -23 -40 -43 0 -62 14 -62 47 0 20 5 23 35 23 28 0 37 -5 50
-30z m-94 -23 l16 -33 -40 -13 c-36 -11 -42 -10 -59 7 -15 15 -17 23 -9 45 9
22 17 27 43 27 27 0 36 -6 49 -33z m401 16 c24 -21 23 -43 -1 -43 -18 0 -51
34 -51 52 0 14 33 8 52 -9z m-58 -10 c3 -10 8 -23 11 -28 5 -11 -44 -45 -64
-45 -6 0 -18 11 -26 24 -13 19 -14 29 -5 45 14 27 75 30 84 4z m-114 -14 c0
-6 9 -23 19 -38 l20 -27 -39 -11 c-34 -9 -42 -7 -56 8 -17 19 -12 57 10 71 17
12 46 9 46 -3z m-334 -26 c19 -26 17 -33 -10 -33 -14 0 -31 -7 -40 -15 -8 -8
-17 -15 -19 -15 -10 0 -17 33 -11 56 5 19 13 24 36 24 18 0 37 -8 44 -17z
m249 -24 c9 -17 15 -32 13 -33 -2 -1 -18 -7 -35 -13 -30 -10 -35 -9 -52 13
-28 36 -17 64 25 64 27 0 36 -6 49 -31z m295 9 c0 -7 3 -24 7 -38 6 -22 5 -24
-10 -11 -18 15 -23 61 -7 61 6 0 10 -6 10 -12z m-391 -33 c11 -19 20 -39 20
-43 0 -4 -16 -13 -36 -19 -31 -11 -37 -11 -49 5 -16 21 -17 33 -4 66 14 37 44
33 69 -9z m359 0 c16 -34 17 -30 -22 -53 -33 -19 -35 -19 -50 -3 -19 21 -19
22 -6 55 13 36 62 36 78 1z m-455 -27 c13 -30 12 -34 -7 -45 -32 -19 -52 -15
-70 12 -23 34 -6 65 34 65 24 0 33 -6 43 -32z m363 -22 l21 -34 -40 -12 c-37
-11 -42 -10 -64 13 -36 36 -24 67 25 67 31 -1 41 -6 58 -34z m-114 -13 c10
-20 16 -38 15 -39 -1 -1 -19 -4 -39 -8 -31 -6 -39 -3 -48 15 -19 34 -5 69 28
69 21 -1 31 -8 44 -37z m239 -42 c-12 -54 -17 -59 -41 -35 -24 24 -16 72 14
84 31 12 38 -1 27 -49z m-329 14 c6 -14 9 -26 7 -28 -2 -1 -18 -12 -36 -25
l-32 -22 -19 21 c-20 21 -19 57 2 71 25 17 66 8 78 -17z m-111 -30 c9 -19 14
-35 12 -35 -10 0 -73 53 -73 61 0 5 10 9 23 9 15 -1 27 -11 38 -35z m370 -7
c22 -27 24 -38 7 -38 -7 0 -25 -7 -41 -15 -25 -13 -28 -12 -42 8 -8 12 -12 32
-8 45 8 30 58 30 84 0z m90 -5 c-8 -15 -10 -15 -11 -2 0 17 10 32 18 25 2 -3
-1 -13 -7 -23z m-215 9 c9 -6 46 -72 41 -72 -1 0 -23 -7 -49 -15 l-48 -14 -15
30 c-11 21 -13 34 -5 48 14 28 52 39 76 23z m-89 -62 c16 -37 18 -50 9 -50 -8
0 -20 7 -27 16 -7 9 -23 20 -36 25 -27 10 -30 34 -5 48 29 17 36 12 59 -39z
m248 -14 c-15 -22 -57 -56 -70 -56 -11 0 -4 29 8 37 8 4 16 16 20 26 4 10 17
17 32 17 25 0 25 -1 10 -24z m-90 -41 c0 -16 -8 -21 -35 -23 -20 -2 -44 4 -55
12 -20 14 -20 15 5 25 41 17 85 9 85 -14z"/>
<path d="M2310 3761 c-25 -3 -58 -15 -75 -25 -94 -60 -103 -69 -133 -129 -28
-55 -32 -74 -32 -141 0 -85 7 -106 56 -153 30 -30 38 -33 97 -33 134 0 229 56
283 166 36 73 46 173 24 233 -14 40 -20 46 -55 53 -21 5 -43 12 -49 17 -17 13
-67 19 -116 12z m38 -29 c2 -6 -15 -25 -37 -43 -34 -27 -41 -38 -41 -68 0 -43
-9 -59 -41 -75 -13 -6 -25 -20 -27 -31 -2 -18 -1 -18 14 3 9 12 22 22 30 22
19 0 34 33 34 73 0 27 7 40 40 66 22 18 40 41 40 51 0 25 13 25 68 3 l44 -18
-5 -45 c-3 -25 -15 -67 -27 -94 -11 -27 -18 -51 -15 -54 8 -9 44 80 56 140 13
65 29 68 29 5 0 -53 -45 -151 -95 -206 -72 -79 -156 -113 -207 -83 -23 13 -32
14 -48 4 -36 -22 -80 -9 -80 26 0 9 7 11 23 6 22 -7 22 -6 4 14 -34 37 -33 89
3 165 18 37 45 77 60 87 35 25 39 25 33 0 -3 -11 0 -26 6 -34 16 -19 4 -42
-29 -56 -31 -13 -66 -47 -58 -56 3 -3 17 5 31 18 13 13 36 31 51 41 27 19 34
45 15 64 -8 8 -3 22 21 52 29 35 37 39 68 37 20 -2 38 -8 40 -14z m172 -147
c-15 -40 -21 -27 -7 18 7 21 13 32 15 24 2 -7 -2 -26 -8 -42z m-9 -49 c15 9
10 -21 -11 -70 -40 -95 -120 -156 -223 -170 -31 -4 -38 -2 -33 9 3 9 -1 15
-10 15 -8 0 -17 -7 -20 -15 -8 -21 -40 -19 -56 3 -7 10 -22 22 -33 26 -12 5
-15 10 -8 13 6 2 22 -3 36 -11 21 -14 31 -14 103 1 75 16 82 20 136 75 32 32
67 77 79 101 12 23 24 36 26 29 3 -6 9 -10 14 -6z m-310 -172 c17 -21 -7 -37
-34 -23 -14 8 -16 13 -6 25 15 18 23 18 40 -2z"/>
<path d="M2421 3659 c0 -14 -7 -34 -15 -45 -14 -18 -15 -18 -21 -1 -10 24 -30
21 -54 -9 -25 -32 -26 -47 -6 -68 24 -23 18 -36 -18 -36 -21 0 -41 -8 -52 -20
-10 -11 -13 -20 -7 -20 6 0 14 5 17 10 3 6 19 10 35 10 44 0 79 43 45 56 -18
7 -20 45 -3 62 17 17 29 15 26 -5 -4 -27 22 -22 44 8 13 17 18 36 15 55 -4 27
-4 27 -6 3z"/>
<path d="M2366 3461 c-15 -16 -54 -36 -111 -56 -11 -4 -15 -9 -8 -12 28 -10
158 65 141 82 -3 3 -12 -3 -22 -14z"/>
<path d="M2461 3462 c-17 -31 -13 -40 5 -14 9 13 14 26 11 29 -3 2 -10 -4 -16
-15z"/>
<path d="M2401 3376 c-12 -13 -36 -26 -52 -30 -37 -7 -39 -25 -1 -18 29 5 58
27 73 54 13 24 7 22 -20 -6z"/>
<path d="M1600 3684 c0 -20 54 -104 67 -104 3 0 -1 8 -10 18 -23 25 -21 35 2
22 24 -12 78 -12 106 0 13 6 3 7 -31 4 -60 -7 -87 4 -114 49 -17 27 -20 29
-20 11z"/>
<path d="M1865 3680 c-4 -12 -5 -24 -2 -27 3 -2 8 5 12 17 4 12 5 24 2 27 -3
2 -8 -5 -12 -17z"/>
<path d="M503 3643 c-21 -25 -75 -83 -120 -127 -46 -45 -83 -88 -83 -97 0 -33
26 -52 79 -57 103 -10 188 51 231 165 37 99 20 163 -43 163 -18 0 -36 -13 -64
-47z m94 29 c16 -10 26 -57 19 -87 -5 -18 -13 -25 -30 -25 -28 0 -81 -63 -72
-86 5 -13 9 -13 31 2 32 21 32 10 1 -31 -29 -37 -102 -75 -146 -75 l-31 0 18
30 c9 17 21 30 25 30 4 0 8 7 8 15 0 10 -10 15 -30 15 -16 0 -30 3 -30 7 0 4
28 35 63 70 34 34 78 80 98 103 37 40 53 47 76 32z"/>
<path d="M2896 3549 c-55 -13 -103 -45 -137 -93 -25 -33 -28 -42 -16 -51 11
-8 12 -14 3 -28 -19 -31 36 -54 136 -56 111 -2 198 54 198 128 0 49 -30 87
-78 101 -43 11 -53 11 -106 -1z m138 -30 c33 -26 33 -42 1 -63 -28 -19 -49
-21 -39 -4 5 8 2 9 -12 4 -10 -4 -41 -12 -68 -17 -27 -5 -52 -12 -55 -15 -3
-4 9 -4 27 0 17 3 47 8 65 11 30 5 31 4 7 -6 -37 -16 -210 -25 -210 -11 0 21
60 80 103 101 57 29 144 29 181 0z m19 -117 c-11 -14 -37 -35 -58 -46 -45 -23
-153 -34 -181 -17 -16 9 -12 10 22 11 58 0 122 25 179 69 38 29 51 35 53 24 2
-9 -5 -27 -15 -41z m-90 -3 c-38 -24 -90 -34 -137 -25 -57 11 -42 26 27 27 34
1 73 5 87 9 45 15 55 10 23 -11z"/>
<path d="M7 3443 c-3 -5 11 -8 31 -6 l37 3 -32 -13 c-45 -17 -52 -28 -11 -15
43 13 95 -8 120 -50 10 -15 18 -21 18 -14 0 7 -17 31 -38 53 -28 31 -47 42
-78 46 -23 3 -44 1 -47 -4z"/>
<path d="M4742 3407 c-30 -32 -57 -187 -34 -200 4 -3 23 -7 42 -10 l35 -6 -37
11 c-21 7 -38 16 -38 21 0 25 35 125 52 150 11 15 17 27 14 27 -3 0 -17 -17
-31 -37 -14 -21 -25 -32 -25 -25 0 21 29 70 47 81 10 6 13 11 7 11 -6 0 -20
-10 -32 -23z"/>
<path d="M52 3317 c-12 -13 -22 -31 -22 -40 0 -28 34 -20 66 16 l29 32 -31
-27 c-49 -45 -77 -29 -32 19 12 13 19 23 16 23 -2 0 -14 -10 -26 -23z"/>
<path d="M1041 3319 c-81 -15 -92 -48 -35 -103 37 -36 126 -76 167 -76 61 0
84 57 47 117 -35 57 -93 78 -179 62z m119 -22 c26 -13 70 -71 70 -93 0 -8 -9
-23 -21 -35 -16 -16 -27 -19 -52 -13 -49 10 -109 41 -145 74 -27 25 -31 33
-22 49 16 30 123 42 170 18z"/>
<path d="M1174 3245 c19 -29 21 -61 4 -68 -8 -4 -7 -6 3 -6 9 -1 20 6 23 15 7
18 -21 84 -36 84 -6 0 -3 -11 6 -25z"/>
<path d="M1753 3267 c-4 -6 -17 -12 -27 -12 -45 0 -46 -130 -1 -220 35 -72 67
-100 114 -99 100 3 138 102 81 214 -36 70 -147 148 -167 117z m67 -28 c19 -12
43 -31 54 -43 65 -73 76 -226 17 -226 -22 0 -35 15 -62 67 -41 80 -74 223 -51
223 4 0 23 -10 42 -21z m-55 -61 c4 -23 16 -62 27 -87 25 -60 17 -75 -15 -26
-16 25 -28 62 -32 98 -9 67 9 80 20 15z m-24 -77 c7 -19 37 -58 66 -88 29 -30
53 -57 53 -59 0 -13 -51 -1 -75 18 -35 27 -75 117 -74 166 0 39 2 38 30 -37z"/>
<path d="M1801 3140 c-1 -17 55 -140 64 -140 3 0 -4 19 -16 42 -12 23 -27 58
-34 77 -8 20 -14 29 -14 21z"/>
<path d="M3764 3265 c-10 -26 4 -61 50 -121 44 -59 89 -94 121 -94 30 0 75 30
81 55 14 58 -37 112 -146 155 -60 24 -98 26 -106 5z m139 -66 c41 -28 87 -71
87 -80 0 -4 -43 22 -95 57 -52 36 -95 67 -95 70 0 7 69 -24 103 -47z m31 15
c26 -15 54 -40 63 -58 l16 -31 -44 40 c-24 22 -55 48 -69 57 -38 26 -18 21 34
-8z m-49 -47 c98 -68 111 -90 55 -95 -29 -2 -42 3 -69 30 -38 37 -91 106 -91
120 0 15 14 8 105 -55z"/>
<path d="M544 3252 c-21 -13 -44 -83 -44 -131 0 -134 112 -282 254 -336 85
-33 157 2 169 83 15 88 -26 191 -107 276 -71 73 -131 106 -203 111 -32 2 -63
1 -69 -3z m120 -18 c9 -3 14 -10 11 -15 -3 -4 -13 -5 -22 -2 -10 4 -14 2 -10
-4 4 -6 18 -10 32 -10 13 0 22 3 19 8 -11 18 9 8 57 -27 55 -40 130 -140 149
-197 11 -35 8 -109 -7 -160 -7 -26 -51 -19 -86 13 -21 18 -26 20 -22 7 4 -9
12 -17 18 -17 6 0 8 -3 4 -6 -20 -20 -138 117 -207 239 -25 44 -30 61 -20 67
8 5 9 10 1 14 -6 4 -10 25 -9 46 1 38 2 39 32 34 24 -4 28 -3 16 5 -13 9 -11
11 7 11 12 0 28 -3 37 -6z m-123 -58 c5 3 9 -8 9 -23 0 -31 66 -155 120 -225
19 -24 56 -64 84 -90 50 -48 54 -66 6 -28 -27 21 -45 26 -34 9 16 -27 -66 29
-108 73 -64 67 -99 141 -102 215 -2 59 4 98 12 75 2 -7 8 -10 13 -6z"/>
<path d="M695 3190 c-3 -5 -1 -11 5 -15 5 -3 10 -3 10 1 0 3 7 1 15 -6 8 -7
15 -8 15 -4 0 14 -38 35 -45 24z"/>
<path d="M600 3091 c0 -6 4 -13 10 -16 6 -3 7 1 4 9 -7 18 -14 21 -14 7z"/>
<path d="M878 2940 c9 -21 18 -35 20 -30 3 9 -25 70 -33 70 -2 0 4 -18 13 -40z"/>
<path d="M160 3232 c0 -7 -15 -21 -32 -32 -18 -11 -28 -20 -21 -20 18 0 69 47
61 56 -5 4 -8 2 -8 -4z"/>
<path d="M2454 3216 c-21 -53 184 -186 286 -186 45 0 73 30 74 80 1 41 -1 44
-44 66 -90 45 -304 72 -316 40z m164 -32 c32 -9 85 -29 120 -46 102 -49 74
-64 -50 -27 -68 20 -198 75 -198 84 0 11 75 4 128 -11z m131 -15 c27 -11 52
-28 55 -36 3 -8 3 -13 -1 -11 -20 9 -121 57 -143 67 -47 22 35 4 89 -20z
m-204 -19 c17 -12 147 -58 197 -71 26 -6 45 -15 42 -20 -9 -16 -87 -10 -142
10 -51 19 -141 78 -142 93 0 8 28 0 45 -12z"/>
<path d="M3193 3219 c35 -14 30 -33 -9 -36 -28 -2 -28 -2 -4 7 l25 8 -25 1
c-24 0 -66 -29 -85 -59 -6 -9 -2 -7 8 3 10 11 20 17 24 13 4 -3 1 -12 -5 -18
-7 -7 -12 -15 -12 -19 0 -4 13 6 29 22 16 16 36 27 43 24 8 -3 24 4 36 16 30
27 50 12 55 -44 l4 -42 1 47 c2 54 -15 71 -78 82 -34 6 -34 5 -7 -5z m-43 -49
c0 -5 -5 -10 -11 -10 -5 0 -7 5 -4 10 3 6 8 10 11 10 2 0 4 -4 4 -10z"/>
<path d="M3105 3200 c-31 -20 -58 -51 -76 -85 -6 -11 6 0 27 24 21 24 52 52
68 62 17 11 27 19 21 19 -5 0 -23 -9 -40 -20z"/>
<path d="M53 3173 c9 -2 23 -2 30 0 6 3 -1 5 -18 5 -16 0 -22 -2 -12 -5z"/>
<path d="M1413 3165 c-64 -28 -70 -86 -15 -147 42 -46 117 -98 143 -98 26 0
49 28 49 58 0 33 -82 177 -109 192 -25 13 -29 12 -68 -5z m101 -57 c54 -86 68
-118 62 -144 -5 -17 -13 -24 -29 -24 -51 0 -177 107 -177 151 0 29 48 69 82
69 23 0 34 -9 62 -52z"/>
<path d="M1390 3097 c0 -21 12 -28 27 -16 19 16 16 29 -7 29 -11 0 -20 -6 -20
-13z"/>
<path d="M3167 3111 c-9 -16 -17 -33 -17 -38 0 -4 9 7 21 26 11 18 18 35 17
37 -2 2 -12 -10 -21 -25z"/>
<path d="M4500 3109 c-63 -39 -128 -99 -134 -125 -12 -45 18 -67 81 -61 54 6
135 37 165 64 29 26 23 79 -11 114 -35 35 -54 36 -101 8z m83 -9 c30 -24 41
-63 26 -91 -18 -34 -113 -70 -173 -67 -47 3 -51 5 -54 29 -2 21 7 35 51 72 48
42 102 77 118 77 4 0 18 -9 32 -20z"/>
<path d="M4566 3042 c-8 -13 11 -35 23 -28 16 10 14 36 -3 36 -8 0 -17 -4 -20
-8z"/>
<path d="M3524 3098 c-61 -69 -76 -119 -57 -199 21 -90 39 -116 116 -160 62
-37 72 -40 133 -37 60 3 69 6 87 30 20 27 20 29 4 63 -10 20 -31 44 -48 53
-74 40 -89 60 -89 117 0 93 -38 155 -95 155 -20 0 -39 -8 -51 -22z m66 -8 c0
23 0 23 21 4 33 -30 43 -55 45 -122 2 -71 15 -92 76 -123 35 -18 68 -53 68
-72 0 -5 -13 2 -30 16 -16 14 -44 28 -62 32 -76 17 -128 72 -128 138 0 22 -3
28 -11 20 -16 -16 -2 -65 31 -111 23 -32 39 -42 87 -55 70 -20 114 -58 97 -85
-8 -12 -28 -18 -70 -20 -55 -3 -64 0 -124 39 -36 23 -70 49 -77 58 -17 22 -43
113 -43 149 0 32 29 91 64 130 l21 23 17 -21 18 -22 0 22z"/>
<path d="M2252 3092 c-65 -19 -131 -110 -132 -181 -1 -114 120 -205 226 -171
88 28 149 136 124 218 -36 112 -118 162 -218 134z m122 -25 c57 -32 89 -96 83
-165 -7 -91 -72 -152 -161 -152 -94 0 -156 63 -156 160 0 57 15 93 55 130 57
53 118 62 179 27z"/>
<path d="M2327 3063 c-16 -15 -6 -33 18 -33 27 0 32 9 13 28 -14 14 -22 15
-31 5z"/>
<path d="M2990 3048 c-28 -61 -27 -132 2 -152 12 -9 32 -16 43 -16 29 0 127
48 121 59 -4 5 -2 12 4 16 5 3 15 15 21 26 6 11 -7 3 -28 -18 -21 -21 -54 -43
-72 -50 l-34 -12 24 26 24 27 -29 -22 c-35 -27 -48 -28 -39 -4 7 16 6 16 -11
0 -23 -24 -36 -23 -36 3 0 11 5 17 10 14 6 -4 10 7 10 27 0 25 -3 29 -10 18
-17 -26 -11 6 10 54 24 58 16 61 -10 4z"/>
<path d="M3205 3049 c-9 -17 -14 -33 -11 -36 3 -3 10 7 16 22 6 15 13 32 16
36 3 5 3 9 0 9 -3 0 -13 -14 -21 -31z"/>
<path d="M3136 3043 c-6 -14 -5 -15 5 -6 7 7 10 15 7 18 -3 3 -9 -2 -12 -12z"/>
<path d="M3007 3033 c-4 -3 -7 -11 -7 -17 0 -6 5 -5 12 2 6 6 9 14 7 17 -3 3
-9 2 -12 -2z"/>
<path d="M3116 3003 c-6 -14 -5 -15 5 -6 7 7 10 15 7 18 -3 3 -9 -2 -12 -12z"/>
<path d="M3201 2976 l-35 -41 39 37 c22 21 37 39 35 41 -3 2 -20 -15 -39 -37z"/>
<path d="M66 2993 c-11 -11 -6 -22 8 -17 7 3 16 -2 19 -10 6 -16 27 -22 27 -8
-1 11 -47 42 -54 35z"/>
<path d="M150 2985 c29 -39 43 -45 63 -27 17 15 20 15 38 -8 19 -24 20 -24 9
-2 -13 27 -42 41 -48 24 -6 -18 -23 -14 -51 11 -21 18 -23 19 -11 2z"/>
<path d="M3045 2969 c-4 -6 -5 -12 -2 -15 2 -3 7 2 10 11 7 17 1 20 -8 4z"/>
<path d="M280 2911 c8 -6 23 -11 32 -11 9 0 19 -6 21 -12 3 -8 6 -6 6 5 1 10
-6 17 -18 17 -11 0 -28 3 -38 6 -15 5 -15 4 -3 -5z"/>
<path d="M4039 2913 l-56 -4 -23 -56 c-63 -152 11 -303 148 -303 70 0 107 24
147 95 65 117 46 186 -68 241 -39 19 -76 33 -82 32 -5 -1 -35 -3 -66 -5z m105
-22 c4 -5 -7 -12 -24 -15 -16 -3 -43 -8 -59 -12 -27 -5 -29 -9 -35 -67 -8 -75
8 -132 45 -159 28 -21 87 -28 131 -15 22 6 26 4 22 -8 -8 -21 -57 -45 -90 -45
-34 0 -88 33 -115 71 -31 45 -40 87 -33 171 6 73 8 77 33 81 52 8 120 7 125
-2z m71 -35 c88 -37 85 -170 -5 -213 -94 -45 -170 2 -170 106 0 84 8 98 59
109 66 14 78 14 116 -2z m-216 -209 c12 -20 34 -46 48 -57 33 -26 18 -26 -25
0 -57 35 -88 140 -64 220 5 18 8 4 12 -50 4 -54 12 -86 29 -113z"/>
<path d="M1136 2885 c-76 -84 -91 -130 -71 -208 32 -125 188 -177 281 -94 49
42 67 83 67 148 0 108 -58 162 -183 171 -67 5 -75 4 -94 -17z m106 -49 c26 8
78 -49 78 -87 0 -32 -29 -42 -31 -11 -1 16 -2 16 -6 0 -2 -10 -12 -17 -21 -16
-38 3 -52 -3 -52 -21 0 -11 -14 -30 -31 -42 l-32 -22 -18 22 c-23 28 -25 14
-3 -17 19 -27 9 -49 -13 -30 -57 47 -55 171 3 219 16 13 16 12 6 -8 -7 -12
-12 -28 -11 -35 1 -12 18 23 40 79 8 22 8 22 40 -8 21 -20 38 -28 51 -23z m74
38 c46 -22 76 -66 82 -120 4 -38 2 -43 -12 -38 -9 3 -16 14 -17 23 0 10 -2 11
-6 4 -8 -22 -21 -14 -33 21 -6 18 -20 42 -30 51 -11 10 -20 24 -20 32 0 10 -6
12 -20 8 -12 -4 -20 -2 -20 5 0 6 -10 15 -22 20 -19 7 -16 9 20 9 24 1 59 -6
78 -15z m62 -172 c20 -3 14 -43 -8 -49 -22 -6 -28 -23 -8 -23 7 0 -5 -16 -25
-35 -30 -29 -45 -35 -80 -35 -56 0 -87 9 -87 26 0 8 -4 14 -10 14 -5 0 -10 5
-10 11 0 5 5 7 10 4 6 -3 10 0 11 7 0 7 4 4 9 -7 7 -16 9 -17 9 -3 1 9 -4 20
-11 24 -7 5 -4 10 11 15 12 5 26 19 31 31 5 13 9 17 9 10 1 -7 6 -10 11 -7 6
4 8 9 6 13 -3 6 93 9 132 4z"/>
<path d="M1266 2787 c3 -10 9 -15 12 -12 3 3 0 11 -7 18 -10 9 -11 8 -5 -6z"/>
<path d="M1103 2730 c0 -25 2 -35 4 -22 2 12 2 32 0 45 -2 12 -4 2 -4 -23z"/>
<path d="M1326 2805 c16 -22 29 -42 31 -44 2 -2 3 1 3 7 0 7 -14 26 -31 44
l-31 33 28 -40z"/>
<path d="M1357 2689 c7 -7 15 -10 18 -7 3 3 -2 9 -12 12 -14 6 -15 5 -6 -5z"/>
<path d="M1266 2679 c7 -11 51 -12 58 -1 2 4 -11 8 -30 9 -18 0 -31 -3 -28 -8z"/>
<path d="M1331 2654 c0 -11 3 -14 6 -6 3 7 2 16 -1 19 -3 4 -6 -2 -5 -13z"/>
<path d="M4708 2875 c2 -14 9 -25 14 -25 6 0 7 7 4 16 -3 9 -6 20 -6 25 0 5
-4 9 -9 9 -4 0 -6 -11 -3 -25z"/>
<path d="M4750 2896 c0 -2 7 -6 15 -10 8 -3 15 -1 15 4 0 6 -7 10 -15 10 -8 0
-15 -2 -15 -4z"/>
<path d="M1 2858 c0 -21 4 -38 10 -38 5 0 8 4 5 9 -12 19 23 19 55 0 l34 -20
-24 21 c-21 18 -22 23 -10 31 20 13 27 11 38 -8 10 -17 10 -17 11 0 0 20 3 20
50 7 59 -16 120 -97 120 -159 0 -11 -7 -8 -25 12 -14 15 -40 34 -58 43 -18 9
-44 27 -58 41 -17 16 -29 21 -33 14 -4 -6 -4 -11 1 -11 4 0 1 -5 -7 -10 -13
-9 -13 -10 0 -11 8 -1 -1 -5 -20 -9 l-35 -7 43 -2 c32 -1 41 -4 36 -13 -6 -10
-5 -10 7 -1 12 10 23 5 57 -26 35 -32 42 -45 42 -75 0 -23 -7 -43 -20 -56 -26
-26 -40 -25 -40 3 0 12 -4 29 -9 36 -6 10 -8 -1 -4 -30 3 -24 12 -51 19 -60
33 -37 -59 -53 -141 -24 -52 19 -56 13 -6 -10 29 -13 56 -16 100 -13 61 4 67
1 62 -34 0 -6 19 -23 96 -88 23 -18 23 -18 23 1 0 23 13 25 30 4 7 -8 29 -20
49 -26 60 -18 125 21 188 114 29 42 31 50 21 73 -9 20 -9 30 2 47 12 20 12 21
-3 9 -14 -12 -18 -9 -31 16 -8 15 -22 34 -30 41 -26 22 -18 31 26 31 39 0 40
-1 24 -18 -15 -18 -15 -19 9 -30 14 -6 25 -16 25 -22 0 -6 5 -8 10 -5 17 11
11 24 -15 31 -30 7 -31 15 -5 34 11 8 20 17 20 20 0 3 -36 4 -80 2 -52 -2 -80
0 -80 7 0 6 6 11 13 11 7 0 22 6 32 14 18 13 17 14 -14 31 -25 12 -50 16 -102
12 -66 -4 -68 -3 -58 17 8 16 6 15 -10 -4 -11 -14 -21 -33 -21 -42 0 -31 -18
-28 -25 4 -9 42 -48 94 -89 119 -38 23 -125 25 -166 4 -27 -14 -29 -14 -33 8
-3 13 -5 8 -6 -15z m501 -109 c21 -11 21 -12 -3 -25 -13 -7 -32 -13 -41 -14
-10 0 -18 -7 -18 -15 0 -9 -12 -18 -30 -22 -17 -3 -33 -9 -36 -14 -8 -13 59 2
77 17 14 12 21 10 56 -15 43 -31 78 -90 63 -105 -6 -6 -17 -4 -28 5 -10 8 -2
-2 19 -22 l38 -36 -43 -54 c-53 -68 -85 -89 -133 -89 -32 0 -44 7 -85 51 -50
54 -60 72 -30 62 12 -4 14 -3 7 5 -13 14 -52 18 -82 8 -19 -6 -23 -4 -23 14 0
13 8 24 19 27 19 5 48 53 32 53 -5 0 -11 -9 -14 -20 -3 -12 -14 -20 -25 -20
-28 0 -37 17 -12 25 11 3 33 23 50 43 25 30 32 34 40 22 8 -13 10 -12 10 3 0
9 -4 17 -10 17 -17 0 -11 26 9 44 15 14 20 14 25 4 3 -7 4 -3 2 9 -5 25 6 35
42 39 13 2 27 5 30 8 10 10 73 6 94 -5z m-263 -25 c32 -27 40 -64 21 -94 -7
-11 -10 -7 -10 19 0 26 -9 42 -36 67 -42 40 -21 47 25 8z m54 -286 c25 -43 18
-57 -19 -37 -32 17 -58 54 -49 69 13 21 47 5 68 -32z"/>
<path d="M457 2649 c7 -7 15 -10 18 -7 3 3 -2 9 -12 12 -14 6 -15 5 -6 -5z"/>
<path d="M366 2619 c-17 -16 -17 -19 -2 -41 9 -12 16 -18 16 -12 0 5 -5 15
-11 21 -8 8 -5 15 11 26 12 8 18 17 13 20 -4 2 -16 -4 -27 -14z"/>
<path d="M418 2613 c6 -2 18 -2 25 0 6 3 1 5 -13 5 -14 0 -19 -2 -12 -5z"/>
<path d="M540 2593 c0 -6 8 -17 18 -24 16 -13 16 -13 2 6 -8 11 -16 22 -17 24
-2 2 -3 0 -3 -6z"/>
<path d="M288 2583 c7 -3 16 -2 19 1 4 3 -2 6 -13 5 -11 0 -14 -3 -6 -6z"/>
<path d="M386 2528 c5 -24 3 -26 -17 -21 -15 4 -20 3 -15 -5 4 -7 16 -12 27
-12 21 0 25 25 9 50 -8 11 -9 8 -4 -12z"/>
<path d="M336 2458 c3 -4 12 -8 20 -8 8 0 14 4 14 8 0 4 -9 8 -19 8 -11 0 -17
-4 -15 -8z"/>
<path d="M4650 2866 c0 -8 6 -18 13 -22 6 -4 9 -4 5 1 -4 4 -3 14 3 22 9 10 8
13 -5 13 -9 0 -16 -6 -16 -14z"/>
<path d="M4674 2809 c0 -20 11 -25 20 -10 3 5 0 13 -7 19 -10 8 -13 6 -13 -9z"/>
<path d="M4756 2805 c-9 -14 -21 -48 -26 -77 -6 -28 -12 -53 -14 -56 -8 -7
-26 9 -26 24 0 8 -4 14 -10 14 -16 0 -12 -15 10 -35 11 -10 18 -25 15 -34 -2
-9 -1 -22 4 -29 5 -9 10 0 15 28 6 39 9 42 31 36 24 -6 25 -4 23 36 -1 37 -2
39 -5 11 -3 -20 -10 -33 -19 -33 -22 0 -17 47 7 63 13 10 16 16 8 19 -9 3 -9
9 0 27 18 32 7 37 -13 6z"/>
<path d="M60 2806 c0 -2 7 -7 16 -10 8 -3 12 -2 9 4 -6 10 -25 14 -25 6z"/>
<path d="M1758 2792 c-42 -25 -37 -56 12 -75 40 -15 56 -41 23 -35 -12 2 -17
-3 -15 -14 4 -22 -1 -22 -58 -2 -41 14 -45 14 -56 -1 -16 -21 -2 -60 33 -92
12 -12 23 -27 23 -33 0 -5 10 -20 23 -32 12 -13 27 -32 32 -43 6 -11 21 -22
34 -23 14 -2 30 -10 37 -17 7 -7 25 -10 39 -7 17 3 33 -2 48 -15 13 -12 42
-23 69 -25 39 -5 50 -2 67 16 28 29 26 42 -6 63 -48 32 -75 61 -71 80 3 14 11
17 43 14 22 -1 52 -9 66 -16 22 -12 29 -12 48 1 11 8 21 25 21 37 -1 25 -36
71 -62 80 -9 3 -24 21 -33 41 -18 37 -42 53 -59 36 -15 -15 -26 -12 -26 8 0
23 -43 45 -58 30 -7 -7 -12 -3 -17 11 -5 17 -14 21 -48 20 -23 -1 -51 1 -62 4
-11 3 -32 -2 -47 -11z m74 -13 c14 -8 23 -8 31 0 17 17 37 13 37 -8 0 -26 17
-36 35 -21 18 15 45 -2 45 -27 0 -12 7 -14 29 -10 31 7 53 -10 65 -50 4 -13
14 -23 22 -23 17 0 63 -49 64 -66 0 -23 -29 -38 -53 -26 -12 6 -44 13 -72 14
-48 3 -50 2 -53 -25 -2 -20 5 -35 27 -57 16 -17 36 -30 44 -30 8 0 17 -7 21
-15 16 -43 -93 -64 -129 -25 -12 13 -31 20 -55 20 -21 0 -43 7 -50 15 -7 8
-21 15 -31 15 -11 0 -19 7 -19 15 0 8 -11 22 -25 31 -29 19 -34 40 -6 24 28
-14 36 -12 21 5 -7 8 -17 15 -22 15 -18 0 -68 44 -68 61 0 10 -4 21 -10 24
-17 11 -11 25 10 25 12 0 35 -7 51 -16 19 -10 41 -13 60 -9 21 5 40 1 65 -15
20 -11 39 -18 42 -15 7 7 -29 34 -45 35 -6 0 -24 5 -40 11 -20 7 -24 12 -14
18 23 14 7 45 -32 64 -43 20 -46 28 -14 43 30 15 45 16 69 3z"/>
<path d="M1840 2741 c0 -6 9 -15 20 -21 11 -6 20 -20 20 -31 0 -11 5 -17 10
-14 18 11 10 33 -20 55 -16 12 -30 17 -30 11z"/>
<path d="M1983 2627 c-13 -5 -23 -14 -23 -19 0 -12 14 -10 28 4 10 10 17 10
32 0 10 -6 26 -9 35 -6 9 4 25 -2 35 -11 11 -10 20 -14 20 -9 0 18 -23 34 -48
34 -13 0 -31 4 -40 9 -10 5 -26 4 -39 -2z"/>
<path d="M1750 2580 c41 -34 69 -38 93 -10 14 17 14 20 2 20 -8 0 -15 -5 -15
-10 0 -23 -31 -21 -61 4 -17 14 -36 26 -42 26 -6 0 4 -13 23 -30z"/>
<path d="M1903 2534 c-4 -10 1 -22 10 -29 10 -7 17 -16 17 -21 0 -5 17 -23 37
-41 35 -32 73 -44 73 -23 0 6 -9 10 -19 10 -22 0 -81 48 -81 66 0 7 -7 15 -16
18 -13 5 -14 9 -4 21 9 11 9 15 1 15 -6 0 -14 -7 -18 -16z"/>
<path d="M4630 2775 c0 -8 2 -15 4 -15 2 0 6 7 10 15 3 8 1 15 -4 15 -6 0 -10
-7 -10 -15z"/>
<path d="M13 2773 c9 -2 23 -2 30 0 6 3 -1 5 -18 5 -17 0 -22 -2 -12 -5z"/>
<path d="M3163 2758 c-26 -13 -45 -61 -42 -109 1 -19 -1 -43 -4 -55 -10 -30
36 -110 111 -193 51 -58 72 -73 115 -87 62 -19 120 -9 156 29 22 24 22 25 6
95 -27 117 -116 242 -185 259 -14 3 -40 19 -58 35 -18 15 -37 28 -42 28 -4 0
-14 2 -22 4 -7 3 -23 0 -35 -6z m74 -28 c36 -22 81 -87 89 -128 4 -23 0 -29
-31 -44 -74 -37 -124 -17 -149 60 -12 35 -14 56 -6 81 16 55 43 64 97 31z
m131 -77 c33 -24 39 -50 26 -100 -5 -17 -14 -23 -34 -23 -15 0 -35 -9 -45 -20
-24 -26 -69 -26 -126 1 -49 24 -59 35 -59 64 0 17 4 15 25 -11 30 -39 74 -49
122 -29 19 8 44 15 54 15 10 0 24 9 33 21 19 28 4 72 -29 87 -14 7 -25 16 -25
22 0 13 11 7 58 -27z m-12 -39 c4 -14 2 -30 -5 -37 -8 -8 -11 -6 -11 10 0 12
-3 28 -6 37 -3 9 -1 16 5 16 6 0 14 -12 17 -26z m97 -74 c27 -49 35 -104 18
-114 -18 -11 -33 23 -27 61 l6 38 -13 -30 -14 -30 -12 23 c-12 23 -7 102 7
102 4 0 19 -23 35 -50z m-45 -67 c9 -21 24 -43 32 -50 8 -6 12 -15 8 -19 -7
-6 -33 14 -84 66 -30 31 -30 40 1 40 19 0 29 -9 43 -37z m-202 13 c10 -8 16
-17 13 -20 -3 -4 -17 2 -30 13 -27 23 -13 28 17 7z m141 -11 c8 -23 -5 -31
-27 -17 -14 9 -20 9 -23 -1 -2 -7 -8 -9 -12 -4 -10 8 23 36 43 37 7 0 15 -7
19 -15z m-88 -4 c9 -6 10 -11 2 -15 -13 -8 -31 1 -31 15 0 11 11 11 29 0z
m123 -39 c7 -11 24 -24 36 -31 13 -7 22 -15 19 -17 -3 -3 -62 23 -96 43 -6 3
10 23 19 23 5 0 15 -8 22 -18z m-92 -2 c0 -5 -4 -10 -9 -10 -6 0 -13 5 -16 10
-3 6 1 10 9 10 9 0 16 -4 16 -10z m35 0 c3 -5 1 -10 -4 -10 -6 0 -11 5 -11 10
0 6 2 10 4 10 3 0 8 -4 11 -10z m-60 -20 c15 -16 15 -20 3 -20 -8 0 -23 9 -33
20 -15 16 -15 20 -3 20 8 0 23 -9 33 -20z m235 -8 c0 -11 -8 -18 -22 -19 -13
0 -17 1 -10 4 6 3 10 9 6 14 -7 12 5 31 17 24 5 -4 9 -14 9 -23z m-180 -2 c8
-5 12 -11 9 -14 -3 -3 -14 1 -25 9 -21 16 -8 20 16 5z m-10 -30 c12 -8 11 -10
-7 -10 -12 0 -25 5 -28 10 -8 13 15 13 35 0z m60 -6 c0 -2 -7 -4 -15 -4 -8 0
-15 4 -15 10 0 5 7 7 15 4 8 -4 15 -8 15 -10z m40 6 c0 -5 -4 -10 -9 -10 -6 0
-13 5 -16 10 -3 6 1 10 9 10 9 0 16 -4 16 -10z m70 -20 c0 -5 -4 -10 -9 -10
-5 0 -17 -3 -27 -7 -11 -4 -15 -3 -11 4 4 6 1 14 -5 16 -7 3 2 6 20 6 17 1 32
-3 32 -9z m-73 -24 c8 -8 -35 -7 -64 0 -37 10 -16 23 23 14 19 -5 38 -11 41
-14z"/>
<path d="M24 2713 c28 -32 30 -32 49 -15 10 9 22 16 25 14 4 -2 8 1 10 6 5 17
-36 1 -43 -16 -5 -12 -11 -10 -38 14 l-32 29 29 -32z"/>
<path d="M2801 2704 c-26 -33 -35 -82 -28 -150 7 -65 33 -114 70 -132 56 -27
88 9 95 108 5 74 -9 135 -39 174 -27 35 -70 35 -98 0z m102 -36 c25 -51 32
-129 17 -184 -14 -50 -32 -63 -57 -43 -46 39 -66 149 -41 231 10 34 15 39 37
36 18 -2 31 -14 44 -40z m-101 -67 c-3 -59 1 -87 13 -111 9 -18 14 -34 12 -36
-13 -13 -41 77 -42 131 0 52 8 95 17 95 2 0 2 -36 0 -79z"/>
<path d="M2853 2615 c6 -93 13 -125 28 -125 22 0 -1 184 -25 207 -5 4 -6 -32
-3 -82z m26 -64 c1 -64 -5 -47 -12 29 -4 41 -3 56 3 40 4 -14 8 -45 9 -69z"/>
<path d="M2400 2657 c-32 -16 -70 -73 -70 -106 1 -65 66 -84 149 -41 102 52
145 128 85 150 -36 14 -134 12 -164 -3z m154 -7 c16 -6 26 -17 26 -29 0 -39
-122 -120 -182 -121 -26 0 -58 22 -58 41 0 29 33 81 62 99 36 22 109 27 152
10z"/>
<path d="M2374 2577 c-14 -30 -15 -39 -4 -52 18 -22 32 -19 18 4 -9 15 -9 25
0 47 7 14 11 29 8 32 -3 2 -13 -12 -22 -31z"/>
<path d="M110 2637 c0 -10 8 -17 18 -17 9 0 13 4 7 8 -5 4 -13 11 -17 16 -5 5
-8 2 -8 -7z"/>
<path d="M890 2568 c-65 -69 -107 -157 -116 -246 -5 -49 -3 -61 16 -84 17 -22
30 -28 60 -28 63 0 87 51 96 210 6 96 -3 161 -23 167 -6 2 -21 -6 -33 -19z
m27 -95 c-6 -87 -36 -199 -63 -237 -39 -56 -23 85 27 234 16 47 29 86 29 87 0
2 3 3 6 3 4 0 4 -39 1 -87z m-43 21 c-22 -53 -43 -134 -50 -199 -7 -58 -16
-68 -33 -36 -21 39 17 179 70 252 28 39 33 32 13 -17z m42 -198 c-9 -29 -23
-60 -33 -67 -15 -13 -16 -12 -9 6 23 57 46 127 47 142 1 12 3 11 6 -5 2 -12
-3 -46 -11 -76z"/>
<path d="M4744 2563 c16 -18 32 -31 34 -28 3 3 3 6 1 8 -2 1 -17 13 -34 27
l-30 25 29 -32z"/>
<path d="M3710 2518 c-1 -2 -3 -38 -6 -81 -5 -73 -4 -83 25 -140 16 -34 50
-82 75 -106 37 -37 52 -45 93 -48 42 -5 51 -2 76 22 37 37 37 101 1 173 -24
48 -104 132 -126 132 -6 0 -32 11 -60 25 -43 21 -77 31 -78 23z m49 -22 c6 -7
33 -21 59 -31 61 -23 116 -76 147 -142 32 -67 32 -104 -1 -140 l-25 -28 17 28
c51 84 -62 267 -165 267 -47 0 -61 -14 -61 -64 -1 -34 -2 -38 -11 -22 -15 25
-2 146 16 146 7 0 18 -6 24 -14z m110 -94 c48 -38 81 -104 81 -163 0 -65 -17
-77 -74 -55 -96 37 -164 166 -125 238 15 28 70 19 118 -20z"/>
<path d="M4547 2479 c-9 -6 -26 -8 -36 -4 -10 3 -32 -4 -52 -18 -62 -41 -110
-67 -125 -67 -9 0 -30 -16 -47 -35 -17 -19 -38 -35 -47 -35 -25 0 -60 -29 -60
-51 0 -30 44 -43 110 -31 30 5 70 7 88 5 36 -6 62 10 62 37 0 11 12 22 30 29
17 5 30 15 30 20 0 6 9 11 20 11 12 0 30 15 45 38 14 20 32 47 41 59 9 13 14
30 10 38 -6 17 -42 19 -69 4z m56 -5 c13 -13 -8 -37 -47 -54 -23 -11 -33 -19
-23 -19 31 -1 16 -35 -18 -41 -18 -3 -30 -11 -30 -20 0 -8 -10 -16 -23 -18
-15 -2 -27 -14 -33 -32 -12 -33 -33 -44 -58 -31 -11 6 -32 6 -57 0 -84 -22
-85 -22 -82 -8 2 9 -5 13 -19 11 -44 -6 -21 29 27 43 14 4 31 13 39 19 8 6 24
11 35 12 12 0 33 1 47 2 33 2 119 77 119 103 0 15 7 19 33 19 17 0 39 5 47 10
17 11 34 13 43 4z m-164 -70 c-31 -33 -71 -54 -104 -54 -32 0 -33 16 0 24 13
3 46 19 72 35 56 33 66 31 32 -5z"/>
<path d="M71 2464 c0 -11 3 -14 6 -6 3 7 2 16 -1 19 -3 4 -6 -2 -5 -13z"/>
<path d="M168 2443 c7 -3 16 -2 19 1 4 3 -2 6 -13 5 -11 0 -14 -3 -6 -6z"/>
<path d="M1360 2394 c-40 -17 -125 -96 -146 -136 -20 -39 -17 -71 9 -96 34
-32 63 -27 113 17 65 57 137 67 186 26 29 -25 80 -33 105 -17 19 12 33 60 27
91 -8 39 -55 95 -98 115 -43 20 -149 21 -196 0z m209 -27 c53 -35 53 -50 0
-24 -87 43 -208 10 -298 -79 -30 -30 -56 -52 -58 -50 -18 18 100 145 160 172
51 23 146 14 196 -19z m7 -42 c48 -31 73 -94 49 -119 -24 -23 -59 -20 -93 9
-24 20 -41 25 -84 25 -55 0 -74 -8 -136 -62 -36 -30 -52 -35 -52 -15 0 23 75
87 126 107 31 12 41 19 27 20 -36 0 -70 -17 -115 -60 -38 -35 -68 -51 -68 -35
0 10 84 96 104 107 90 48 189 58 242 23z"/>
<path d="M560 2343 c10 -21 8 -23 -19 -23 -16 0 -32 -3 -34 -7 -3 -5 15 -8 39
-8 24 0 44 2 44 5 0 3 -10 16 -21 30 -18 23 -19 23 -9 3z"/>
<path d="M2580 2345 c0 -8 4 -16 9 -20 5 -3 12 -19 16 -35 8 -35 68 -90 120
-109 34 -12 38 -11 61 10 13 12 24 31 24 41 0 42 -108 111 -187 121 -32 4 -43
2 -43 -8z m134 -38 c33 -18 65 -42 73 -54 12 -17 11 -23 -5 -43 -14 -17 -25
-21 -43 -17 -41 11 -88 45 -109 79 -45 74 -12 88 84 35z"/>
<path d="M297 2326 c-10 -25 -6 -27 29 -17 23 7 25 9 7 10 -12 1 -23 6 -25 13
-3 7 -7 5 -11 -6z"/>
<path d="M395 2290 c-22 -25 -32 -25 -38 -2 -3 12 -5 13 -6 2 0 -8 3 -21 8
-29 7 -11 14 -9 34 14 l24 29 31 -23 c31 -22 52 -21 52 2 0 8 -3 7 -9 -2 -7
-11 -14 -10 -39 8 -37 26 -35 26 -57 1z"/>
<path d="M2239 2263 c-7 -23 -9 -61 -5 -107 11 -122 78 -236 175 -298 55 -34
101 -36 156 -5 37 21 40 26 43 72 5 81 -46 199 -112 258 -36 32 -99 65 -148
77 -26 7 -53 18 -59 26 -19 24 -37 16 -50 -23z m45 1 c3 -9 6 -24 6 -34 0 -24
30 -94 37 -86 3 3 -2 23 -11 46 -24 59 -21 72 12 64 55 -13 128 -52 166 -90
71 -71 124 -222 96 -273 l-11 -22 -41 23 c-22 13 -62 47 -89 76 -27 30 -49 48
-49 42 0 -7 27 -39 60 -71 66 -64 67 -76 2 -30 -39 29 -113 124 -146 188 -34
67 -64 183 -48 183 5 0 13 -7 16 -16z m21 -178 c6 -13 5 -17 -3 -12 -14 8 -52
110 -52 139 0 12 11 -7 24 -43 13 -36 27 -74 31 -84z m-20 -16 c17 -37 45 -59
31 -25 -8 23 0 18 19 -11 14 -22 15 -28 4 -36 -11 -7 -11 -8 2 -6 9 2 38 -20
65 -47 27 -28 65 -63 84 -78 l35 -28 -39 5 c-49 6 -87 31 -80 51 4 8 1 15 -5
15 -6 0 -11 -6 -11 -12 -1 -7 -19 7 -42 32 -38 41 -76 111 -93 169 -11 36 9
17 30 -29z"/>
<path d="M2445 2160 c3 -5 8 -10 11 -10 2 0 4 5 4 10 0 6 -5 10 -11 10 -5 0
-7 -4 -4 -10z"/>
<path d="M2410 2131 c0 -5 5 -13 10 -16 6 -3 10 -2 10 4 0 5 -4 13 -10 16 -5
3 -10 2 -10 -4z"/>
<path d="M2365 2070 c3 -5 8 -10 11 -10 2 0 4 5 4 10 0 6 -5 10 -11 10 -5 0
-7 -4 -4 -10z"/>
<path d="M2440 2057 c0 -9 9 -21 20 -27 11 -6 20 -8 20 -5 0 3 -9 15 -20 27
-17 18 -20 19 -20 5z"/>
<path d="M2516 2055 c4 -8 10 -15 15 -15 4 0 6 7 3 15 -4 8 -10 15 -15 15 -4
0 -6 -7 -3 -15z"/>
<path d="M2561 1974 c0 -11 3 -14 6 -6 3 7 2 16 -1 19 -3 4 -6 -2 -5 -13z"/>
<path d="M2515 1950 c3 -5 8 -10 11 -10 2 0 4 5 4 10 0 6 -5 10 -11 10 -5 0
-7 -4 -4 -10z"/>
<path d="M18 2253 c-21 -5 -24 -33 -6 -51 9 -9 9 -15 0 -24 -7 -7 -12 -42 -12
-85 l0 -73 43 0 c49 0 81 19 102 60 20 39 19 69 -5 107 -29 48 -82 76 -122 66z
m58 -28 c4 -8 14 -15 23 -15 10 0 22 -13 29 -33 16 -45 16 -47 -13 -47 -36 0
-75 42 -75 80 0 32 26 43 36 15z m-30 -93 c-9 -9 -37 8 -31 18 5 8 11 7 21 -1
8 -6 12 -14 10 -17z"/>
<path d="M4747 2212 c-49 -51 -50 -158 -1 -181 15 -6 28 -10 31 -8 2 3 2 53 1
111 l-3 107 -28 -29z"/>
<path d="M1890 2180 c-11 -7 -2 -10 33 -10 30 0 46 4 42 10 -8 13 -55 13 -75
0z"/>
<path d="M3323 2183 c27 -7 17 -34 -23 -62 -19 -13 -26 -20 -15 -16 38 15 78
18 71 6 -4 -6 -12 -11 -18 -11 -5 0 -22 -10 -36 -21 l-27 -21 40 6 c22 4 48 7
58 8 24 3 21 18 -4 18 -19 0 -20 2 -8 16 11 14 11 18 -1 28 -9 6 -14 21 -12
34 3 18 -1 22 -20 21 -18 -1 -19 -2 -5 -6z"/>
<path d="M3215 2167 c-21 -13 -45 -40 -40 -45 1 -2 18 11 36 27 35 33 37 37 4
18z"/>
<path d="M1792 2118 c-40 -33 -62 -60 -62 -73 0 -21 79 -139 109 -162 9 -7 33
-18 54 -23 102 -29 203 103 167 217 -13 39 -56 93 -74 93 -6 0 0 -7 12 -16 84
-59 64 -225 -31 -248 -62 -16 -108 5 -173 80 l-58 66 50 47 c27 25 59 51 69
58 11 6 15 12 10 12 -6 1 -38 -22 -73 -51z m160 -226 c45 5 49 4 33 -8 -44
-32 -148 -5 -175 45 -9 17 -2 15 39 -11 44 -27 57 -30 103 -26z"/>
<path d="M3062 2113 c-29 -21 -54 -44 -57 -52 -5 -12 -3 -12 12 0 10 8 22 20
26 27 11 17 34 15 46 -5 8 -14 9 -11 5 13 -5 25 -2 32 18 41 12 7 18 12 12 12
-6 1 -34 -16 -62 -36z"/>
<path d="M4155 2074 c-24 -24 -38 -93 -39 -189 -1 -77 2 -96 23 -131 13 -24
40 -51 63 -64 52 -29 96 -21 137 26 25 28 31 43 31 82 0 63 -53 172 -114 233
-52 52 -80 64 -101 43z m122 -87 c70 -97 95 -178 72 -232 l-13 -30 -6 50 c-7
49 -7 49 -9 10 -2 -59 -12 -87 -27 -81 -8 3 -14 1 -14 -4 0 -18 -17 -10 -29
13 -6 12 -10 14 -7 5 7 -25 -17 -28 -51 -7 -43 28 -63 83 -63 178 0 103 13
137 21 56 6 -59 6 -59 7 23 1 46 6 81 10 78 4 -2 14 -1 22 4 19 11 50 -11 87
-63z"/>
<path d="M4255 1958 c19 -29 35 -60 35 -70 0 -9 5 -20 11 -24 19 -11 0 37 -37
94 -19 28 -37 52 -39 52 -3 0 10 -24 30 -52z"/>
<path d="M4257 1858 c13 -39 24 -82 24 -97 2 -22 2 -23 6 -4 5 23 -32 159 -45
167 -5 3 2 -27 15 -66z"/>
<path d="M4160 1848 c0 -7 5 -20 10 -28 8 -12 10 -11 10 7 0 12 -4 25 -10 28
-5 3 -10 0 -10 -7z"/>
<path d="M445 2070 l-20 -9 20 0 c17 -1 18 -3 5 -12 -12 -8 -9 -9 13 -5 15 4
38 4 52 0 21 -5 23 -9 14 -20 -9 -12 -9 -13 3 -9 11 5 14 -1 13 -22 -3 -43
-31 -89 -70 -113 -20 -12 -34 -25 -31 -27 3 -3 20 5 38 18 l33 22 -30 -33
c-16 -18 -43 -41 -60 -51 -16 -11 -25 -19 -20 -19 26 0 90 57 126 112 32 50
39 70 39 109 0 38 -4 51 -19 59 -23 12 -78 12 -106 0z m95 -10 c12 -8 12 -10
-5 -9 -11 0 -29 4 -40 9 -18 8 -18 9 5 9 14 0 32 -4 40 -9z"/>
<path d="M1886 2071 c-5 -7 5 -11 26 -11 42 0 105 -37 90 -52 -12 -12 -85 4
-109 24 -9 7 -13 7 -13 0 0 -14 55 -35 98 -36 30 -1 37 3 37 18 0 31 -115 81
-129 57z"/>
<path d="M2943 2046 c-32 -32 -43 -69 -23 -81 6 -3 10 -18 10 -33 l0 -27 15
29 c17 32 18 36 8 35 -22 -4 -33 3 -33 20 0 20 26 47 32 33 1 -5 10 6 19 24
20 41 14 41 -28 0z"/>
<path d="M3154 2064 c-19 -15 -19 -15 1 -6 11 5 27 12 35 15 13 5 13 6 -1 6
-8 1 -24 -6 -35 -15z"/>
<path d="M378 2044 c-39 -21 -35 -28 5 -8 37 19 44 24 31 24 -5 -1 -21 -8 -36
-16z"/>
<path d="M3237 2045 c-33 -17 -83 -55 -73 -55 4 0 22 11 40 25 18 14 38 25 44
25 6 0 14 5 17 10 8 13 5 13 -28 -5z"/>
<path d="M3360 2029 c-21 -26 -26 -28 -36 -14 -6 8 -15 15 -20 15 -4 0 -3 -5
4 -12 7 -7 12 -20 12 -30 0 -13 10 -7 36 22 20 22 35 42 33 44 -2 2 -15 -9
-29 -25z"/>
<path d="M970 2025 c-14 -8 -38 -15 -55 -15 -78 -1 -202 -105 -256 -213 -28
-56 -28 -61 -14 -84 28 -42 74 -63 142 -63 59 0 66 3 150 59 135 91 140 98
159 252 5 35 2 49 -11 62 -20 21 -81 22 -115 2z m104 -11 c24 -24 19 -76 -10
-120 -34 -49 -52 -63 -85 -64 -25 0 -107 55 -108 73 -1 4 18 28 42 54 62 68
128 91 161 57z m-154 -24 c0 -5 -11 -10 -24 -10 -28 0 -66 -42 -66 -72 0 -11
11 -23 28 -30 15 -7 40 -23 55 -35 37 -30 100 -31 124 -3 25 29 36 24 19 -9
-13 -24 -23 -29 -69 -35 -63 -7 -114 7 -122 35 -4 10 -17 22 -31 25 -21 5 -24
12 -24 48 0 51 6 60 50 79 42 18 60 20 60 7z m-47 -56 c-9 -15 -19 -21 -21
-15 -4 13 16 41 29 41 5 0 2 -12 -8 -26z m-99 -95 c-9 -10 -12 -19 -6 -19 6 0
15 7 20 16 10 18 43 16 50 -3 2 -7 -5 -16 -15 -20 -10 -3 -22 -12 -26 -20 -4
-7 -16 -13 -25 -13 -26 0 -29 94 -5 129 l18 26 3 -38 c2 -26 -2 -45 -14 -58z
m-34 3 c0 -36 -14 -62 -32 -62 -13 0 -9 58 4 80 19 30 28 24 28 -18z m145 -54
c5 4 5 -1 2 -10 -4 -10 -2 -18 3 -18 6 0 10 -4 10 -10 0 -5 -7 -10 -15 -10 -8
0 -14 3 -14 8 4 21 -2 34 -14 29 -8 -3 -20 -1 -27 3 -11 7 -11 11 0 25 13 16
15 16 31 -4 9 -11 20 -17 24 -13z m-192 -47 c-3 -4 -8 0 -10 7 -3 6 -9 10 -14
6 -14 -8 -11 20 3 34 10 10 14 7 20 -15 4 -15 5 -29 1 -32z m47 30 c0 -5 -7
-11 -15 -15 -15 -5 -20 5 -8 17 9 10 23 9 23 -2z m95 -5 c18 -9 23 -16 15 -21
-7 -4 -15 -4 -19 1 -3 5 -12 9 -18 10 -30 2 -34 5 -28 14 8 13 18 13 50 -4z
m105 4 c0 -5 -9 -10 -20 -10 -11 0 -20 5 -20 10 0 6 9 10 20 10 11 0 20 -4 20
-10z m55 0 c-3 -5 -15 -10 -26 -10 -11 0 -17 5 -14 10 3 6 15 10 26 10 11 0
17 -4 14 -10z m-220 -20 c3 -5 -1 -10 -9 -10 -9 0 -16 5 -16 10 0 6 4 10 9 10
6 0 13 -4 16 -10z m-35 -10 c0 -5 -5 -10 -11 -10 -5 0 -7 5 -4 10 3 6 8 10 11
10 2 0 4 -4 4 -10z m80 -4 c0 -3 -4 -8 -10 -11 -5 -3 -10 -1 -10 4 0 6 5 11
10 11 6 0 10 -2 10 -4z m120 -4 c0 -12 -49 -37 -57 -29 -8 8 26 36 45 37 6 0
12 -4 12 -8z m-80 -12 c0 -5 -10 -10 -22 -10 -19 0 -20 2 -8 10 19 13 30 13
30 0z m-147 -7 c-7 -2 -21 -2 -30 0 -10 3 -4 5 12 5 17 0 24 -2 18 -5z m54 1
c-3 -3 -12 -4 -19 -1 -8 3 -5 6 6 6 11 1 17 -2 13 -5z m33 -14 c0 -5 -4 -10
-10 -10 -5 0 -10 5 -10 10 0 6 5 10 10 10 6 0 10 -4 10 -10z m-73 -6 c-3 -3
-12 -4 -19 -1 -8 3 -5 6 6 6 11 1 17 -2 13 -5z m143 -10 c0 -2 -9 -4 -21 -4
-11 0 -18 4 -14 10 5 8 35 3 35 -6z m-60 -14 c0 -12 -47 -12 -75 0 -15 6 -8 9
28 9 26 1 47 -3 47 -9z"/>
<path d="M319 2003 c-13 -16 -12 -17 4 -4 9 7 17 15 17 17 0 8 -8 3 -21 -13z"/>
<path d="M350 1979 c-22 -18 -22 -19 -3 -10 12 6 25 16 28 21 9 15 3 12 -25
-11z"/>
<path d="M263 1953 c-23 -29 -28 -47 -28 -89 0 -38 5 -58 17 -69 10 -8 13 -10
8 -3 -17 20 -11 28 23 29 17 1 24 3 14 6 -27 7 -15 26 21 35 17 5 34 13 38 19
4 8 0 8 -14 0 -35 -19 -50 -14 -48 18 1 15 7 37 15 47 7 10 -3 1 -23 -20 -20
-22 -36 -46 -35 -55 0 -10 2 -12 6 -3 9 22 20 13 15 -13 -6 -32 -20 -32 -28
-1 -8 32 2 63 33 104 13 17 22 32 19 32 -3 0 -18 -17 -33 -37z"/>
<path d="M514 1968 l-19 -23 23 19 c21 18 27 26 19 26 -2 0 -12 -10 -23 -22z"/>
<path d="M3613 1952 c-67 -54 -83 -77 -74 -110 13 -49 53 -67 148 -67 84 0 86
-1 107 -30 48 -68 84 -96 117 -93 20 2 39 12 50 28 16 22 17 34 9 89 -7 52
-17 74 -52 120 -52 67 -90 88 -183 96 l-70 7 -52 -40z m232 -8 c15 -10 45 -42
67 -72 35 -47 41 -64 46 -118 4 -53 2 -65 -12 -70 -22 -8 -58 17 -75 52 -41
88 -51 100 -92 122 -43 22 -93 29 -103 14 -2 -4 10 -8 27 -8 18 0 49 -9 71
-19 31 -15 44 -30 64 -74 14 -31 34 -66 45 -78 13 -14 16 -23 8 -23 -12 0 -38
25 -94 90 -27 33 -28 33 -95 27 -53 -5 -75 -3 -102 11 -38 19 -51 42 -23 43
15 0 14 2 -4 9 -37 15 -26 36 47 89 44 32 47 33 121 28 50 -3 86 -11 104 -23z"/>
<path d="M2978 1973 c7 -3 16 -2 19 1 4 3 -2 6 -13 5 -11 0 -14 -3 -6 -6z"/>
<path d="M3252 1964 c2 -14 -4 -20 -24 -22 -18 -2 -25 -8 -22 -17 8 -19 -42
-31 -61 -15 -12 10 -15 10 -15 -2 0 -8 -11 -20 -25 -26 -34 -16 -35 -16 -36
11 -1 20 -2 20 -6 2 -9 -34 -24 -47 -39 -34 -10 8 -14 8 -14 0 0 -6 -11 -11
-25 -11 -27 0 -35 26 -13 48 9 9 8 12 -5 12 -13 0 -17 -9 -17 -35 0 -34 1 -35
38 -35 21 0 67 11 102 25 35 14 74 25 86 25 12 0 28 7 35 17 8 9 33 25 57 35
39 18 61 37 26 24 -9 -4 -23 -1 -31 6 -12 10 -14 9 -11 -8z"/>
<path d="M4554 1966 c-11 -8 -31 -16 -44 -18 -24 -3 -25 -7 -28 -76 l-3 -74
69 -67 c83 -81 89 -90 98 -171 6 -61 10 -68 59 -117 29 -29 57 -53 63 -53 7 0
9 31 7 93 -4 110 -3 106 -16 85 -5 -10 -17 -18 -24 -18 -20 0 -19 29 0 35 51
16 49 15 29 30 -18 13 -18 14 -1 20 13 5 17 19 17 52 0 27 -4 42 -10 38 -6 -4
-10 5 -10 20 0 14 3 24 8 22 4 -3 8 18 9 46 1 44 -3 57 -25 81 -74 79 -149
106 -198 72z m96 -11 c7 -9 10 -18 6 -22 -3 -3 1 -14 10 -24 21 -24 0 -35 -28
-15 -12 9 -27 16 -33 16 -5 0 5 -9 23 -20 37 -22 38 -27 16 -58 -14 -20 -14
-24 0 -38 9 -8 16 -20 16 -25 0 -13 -28 -11 -37 4 -4 6 -17 19 -28 27 -15 10
-17 11 -8 0 10 -11 10 -17 0 -28 -10 -13 -8 -14 9 -8 18 5 27 -2 53 -43 18
-27 33 -61 35 -75 1 -14 6 -29 9 -33 13 -12 7 -23 -13 -23 -11 0 -23 8 -26 18
-14 46 -49 100 -76 115 -16 9 -26 21 -23 27 3 5 -1 10 -10 10 -31 0 -72 98
-47 114 4 2 21 -11 36 -30 15 -20 30 -33 33 -30 3 3 -4 14 -17 24 -12 10 -24
30 -25 45 -3 22 1 27 18 28 12 0 16 3 10 6 -20 8 -15 29 10 41 32 16 73 14 87
-3z m57 -71 c-3 -39 -20 -51 -25 -16 -2 13 2 22 9 22 10 0 10 3 1 12 -7 7 -12
18 -12 26 0 11 3 12 14 3 9 -7 14 -27 13 -47z m53 -43 c0 -26 0 -26 -20 7 -26
42 -26 60 0 37 11 -10 20 -30 20 -44z m-75 -11 c3 -11 4 -24 0 -30 -3 -5 0 -7
8 -4 20 7 31 -14 17 -31 -16 -19 -30 -19 -30 0 0 8 -4 15 -9 15 -13 0 -22 30
-16 51 8 25 22 24 30 -1z m48 -5 c-5 -13 -23 -22 -23 -11 0 15 14 35 21 31 4
-3 6 -12 2 -20z m23 -51 c-5 -13 -10 -14 -18 -6 -6 6 -8 18 -4 28 5 13 10 14
18 6 6 -6 8 -18 4 -28z m-81 -44 c-5 -8 -11 -8 -17 -2 -6 6 -7 16 -3 22 5 8
11 8 17 2 6 -6 7 -16 3 -22z m55 -5 c-9 -11 -16 -13 -23 -6 -7 7 -6 15 3 26 9
11 16 13 23 6 7 -7 6 -15 -3 -26z m-35 -25 c-3 -4 2 -11 11 -14 14 -5 11 -26
-4 -26 -10 0 -31 48 -24 54 7 8 23 -4 17 -14z m54 -6 c-6 -8 -15 -14 -20 -14
-14 0 -11 28 4 33 20 7 29 -4 16 -19z m21 -24 c0 -23 -55 -56 -66 -39 -3 6 -1
16 5 22 9 9 14 9 20 -2 6 -9 10 -6 15 13 8 30 26 35 26 6z m-34 -72 c-10 -6
-20 -7 -24 -3 -9 8 20 25 31 18 5 -3 2 -10 -7 -15z m-31 -38 c1 -26 26 -102
32 -97 3 4 1 19 -5 36 -11 31 -7 41 15 41 9 0 13 -15 13 -51 0 -31 -4 -48 -10
-44 -5 3 -10 1 -10 -6 0 -17 -49 30 -66 63 -8 15 -14 39 -14 53 0 22 4 26 23
23 12 -2 22 -10 22 -18z"/>
<path d="M4583 1933 c9 -2 25 -2 35 0 9 3 1 5 -18 5 -19 0 -27 -2 -17 -5z"/>
<path d="M4547 1879 c7 -7 15 -10 18 -7 3 3 -2 9 -12 12 -14 6 -15 5 -6 -5z"/>
<path d="M4580 1865 c0 -2 10 -10 23 -16 20 -11 21 -11 8 4 -13 16 -31 23 -31
12z"/>
<path d="M3080 1960 c-9 -6 -10 -10 -3 -10 6 0 15 5 18 10 8 12 4 12 -15 0z"/>
<path d="M1335 1934 c-12 -9 -31 -13 -46 -10 -39 8 -97 -11 -104 -34 -9 -29 3
-58 28 -65 12 -4 41 -16 64 -27 38 -17 41 -21 30 -39 -10 -15 -23 -19 -74 -19
-34 0 -65 -5 -68 -11 -10 -14 4 -79 16 -79 5 0 23 -10 39 -21 21 -16 36 -20
55 -15 21 5 33 2 51 -15 13 -12 30 -19 39 -15 9 3 25 0 35 -7 16 -9 24 -9 40
1 11 6 33 12 49 12 17 0 33 5 36 10 3 6 21 10 38 10 36 1 104 50 93 68 -3 6
-23 16 -44 22 -20 6 -43 13 -51 16 -11 4 -11 7 0 21 11 13 11 17 2 20 -7 3
-13 9 -13 15 0 5 22 8 53 6 52 -3 52 -3 50 26 -2 32 -29 66 -52 66 -8 0 -25
12 -36 26 -18 23 -24 25 -42 16 -17 -9 -22 -9 -27 4 -5 13 -15 15 -46 11 -28
-3 -40 -1 -44 9 -7 18 -46 17 -71 -2z m62 -15 c4 -15 11 -19 24 -15 11 3 28 9
40 12 15 5 22 1 26 -15 6 -22 18 -27 28 -11 10 17 37 11 42 -9 3 -12 17 -21
37 -25 24 -5 35 -14 44 -38 6 -17 9 -34 7 -37 -3 -2 -21 1 -42 7 -42 13 -78 0
-69 -25 5 -12 1 -14 -16 -9 -13 4 -43 9 -68 11 -25 2 -36 2 -25 -1 60 -14 94
-28 99 -40 2 -6 30 -20 61 -29 35 -10 55 -21 52 -28 -2 -7 -11 -11 -21 -9 -9
2 -16 -4 -16 -13 0 -17 -1 -17 -80 -16 -42 0 -49 -2 -30 -8 18 -6 21 -10 10
-13 -8 -3 -29 -10 -46 -15 -18 -6 -38 -7 -45 -2 -8 5 -26 9 -40 9 -15 0 -32 7
-39 15 -7 9 -30 15 -54 15 -48 1 -94 33 -98 70 -3 23 0 24 56 27 58 2 96 21
96 48 0 11 -77 54 -122 69 -24 7 -23 29 2 51 14 12 30 16 57 13 25 -3 50 1 73
14 44 23 51 23 57 -3z"/>
<path d="M1244 1869 c-4 -8 3 -9 23 -5 23 5 32 3 36 -8 4 -9 15 -16 26 -16 12
0 27 -12 35 -27 8 -16 15 -22 16 -15 0 21 -20 52 -34 52 -8 0 -19 7 -26 15
-14 17 -66 20 -76 4z"/>
<path d="M1523 1843 c-19 -3 -37 -12 -43 -24 -6 -11 -7 -19 -1 -19 5 0 11 7
15 15 3 9 18 15 35 15 16 0 33 5 36 10 3 6 3 9 -2 8 -4 0 -23 -3 -40 -5z"/>
<path d="M1365 1721 c5 -17 2 -21 -18 -21 -13 0 -27 -3 -31 -7 -10 -11 -85
-12 -92 -2 -3 5 -10 9 -16 9 -7 0 -6 -6 2 -15 14 -17 105 -21 115 -5 3 6 17
10 31 10 17 0 24 5 24 19 0 11 -5 23 -11 27 -8 4 -9 0 -4 -15z"/>
<path d="M1450 1705 c0 -17 5 -36 12 -43 15 -15 112 -17 103 -2 -3 6 -26 10
-51 10 -35 0 -44 3 -44 18 0 9 -5 24 -10 32 -7 11 -10 8 -10 -15z"/>
<path d="M3018 1934 c-16 -8 -28 -17 -28 -19 0 -10 16 -4 40 15 30 23 25 25
-12 4z"/>
<path d="M430 1920 c-9 -6 -10 -10 -3 -10 6 0 15 5 18 10 8 12 4 12 -15 0z"/>
<path d="M380 1900 c-8 -5 -10 -10 -5 -10 6 0 17 5 25 10 8 5 11 10 5 10 -5 0
-17 -5 -25 -10z"/>
<path d="M397 1843 c-4 -3 -24 -9 -44 -13 -35 -7 -35 -8 -8 -8 31 -1 103 26
74 27 -9 1 -19 -2 -22 -6z"/>
<path d="M1 1830 c-1 -8 6 -28 14 -44 17 -32 20 -76 6 -76 -6 0 -12 15 -14 33
-2 17 -3 4 -3 -29 1 -34 4 -57 8 -51 4 8 9 5 14 -7 4 -11 2 -21 -7 -26 -10 -7
-13 -36 -14 -110 l-1 -101 41 41 40 40 0 88 c0 82 -3 92 -42 172 -23 47 -42
78 -42 70z m74 -217 c7 -54 -11 -136 -25 -113 -5 8 -10 3 -14 -14 -11 -45 -22
-28 -16 26 5 54 25 76 33 36 4 -21 4 -21 3 2 0 14 3 31 7 38 5 6 4 12 -1 12
-14 0 -36 86 -27 107 6 15 9 14 21 -12 7 -16 16 -53 19 -82z m-35 -12 c0 -23
-16 -36 -25 -21 -9 14 1 40 15 40 5 0 10 -9 10 -19z"/>
<path d="M298 1773 c12 -2 30 -2 40 0 9 3 -1 5 -23 4 -22 0 -30 -2 -17 -4z"/>
<path d="M2053 1740 c-100 -36 -219 -97 -241 -125 -25 -32 -28 -63 -8 -91 12
-16 25 -19 75 -17 88 2 152 27 212 81 46 41 79 92 79 121 0 14 -41 51 -54 50
-6 0 -34 -9 -63 -19z m80 -25 c3 -20 -3 -31 -28 -50 -17 -14 -37 -25 -44 -25
-6 0 -17 -11 -23 -25 -7 -16 -19 -25 -35 -25 -16 0 -27 -8 -33 -25 -5 -14 -16
-25 -25 -25 -8 0 -15 -4 -15 -10 0 -5 -25 -10 -55 -10 -44 0 -56 4 -65 20 -19
36 -4 57 43 62 54 6 97 34 97 62 0 17 14 27 68 48 87 35 108 35 115 3z"/>
<path d="M2760 1733 c-72 -25 -106 -57 -144 -136 -51 -106 -52 -122 -17 -157
46 -47 73 -41 118 27 21 32 54 68 73 81 35 24 41 24 128 6 49 -10 82 16 82 65
0 48 -29 87 -84 112 -49 22 -95 23 -156 2z m127 -5 c41 -15 43 -26 3 -20 -54
8 -97 -8 -163 -59 -61 -47 -93 -91 -124 -174 -6 -17 -8 -15 -11 12 -4 36 53
157 90 190 22 20 123 61 152 62 11 1 35 -4 53 -11z m72 -69 c38 -37 39 -63 5
-85 -21 -15 -31 -15 -58 -6 -79 29 -137 3 -200 -91 -51 -77 -69 -62 -26 22 21
43 42 69 67 84 20 11 31 23 25 25 -23 7 -72 -40 -103 -98 -50 -95 -70 -73 -23
26 20 42 41 66 91 104 63 48 69 50 129 50 56 0 65 -3 93 -31z"/>
<path d="M3662 1594 c-51 -35 -14 -122 70 -165 77 -39 106 -9 73 77 -18 46
-75 104 -103 104 -10 0 -28 -7 -40 -16z m90 -31 c25 -26 48 -72 48 -94 0 -5
-7 -9 -15 -9 -8 0 -15 -7 -15 -15 0 -22 -12 -19 -59 15 -52 38 -69 70 -53 105
16 35 60 34 94 -2z m49 -126 c-1 -12 -15 -9 -19 4 -3 6 1 10 8 8 6 -3 11 -8
11 -12z"/>
<path d="M966 1520 c-63 -56 -84 -140 -37 -153 21 -5 86 21 132 54 39 28 41
78 3 108 -36 28 -57 26 -98 -9z m103 -14 c24 -28 4 -64 -52 -96 -58 -33 -69
-36 -66 -17 3 26 -2 37 -16 37 -14 0 -14 3 -1 28 16 30 53 67 76 74 18 6 41
-5 59 -26z m-124 -107 c-4 -5 -13 -9 -22 -9 -13 0 -13 3 -3 15 13 15 35 11 25
-6z"/>
<path d="M299 1529 c-32 -12 -49 -47 -49 -103 0 -33 6 -48 28 -69 44 -42 114
-67 205 -74 96 -7 132 5 122 38 -5 14 -1 25 11 33 16 13 16 16 -9 59 -58 99
-205 154 -308 116z m184 -26 c43 -21 89 -54 84 -59 -2 -3 -26 5 -52 16 -60 26
-146 35 -202 22 -24 -5 -43 -7 -43 -2 0 11 33 37 55 43 33 9 124 -2 158 -20z
m-43 -62 c53 -25 150 -106 150 -126 0 -28 -67 -33 -169 -11 -74 16 -141 59
-156 100 -8 24 -6 31 15 48 31 25 94 21 160 -11z m85 -2 c24 -11 45 -29 48
-39 7 -26 -3 -33 -22 -16 -9 8 -41 31 -71 51 -44 29 -49 36 -26 31 15 -4 48
-16 71 -27z m85 -70 c0 -5 -4 -9 -10 -9 -5 0 -10 7 -10 16 0 8 5 12 10 9 6 -3
10 -10 10 -16z"/>
<path d="M3275 1510 c-11 -5 -36 -9 -55 -9 -57 -1 -170 -76 -197 -131 -62
-121 3 -274 133 -315 32 -10 66 -14 82 -11 32 8 202 73 218 84 23 15 84 122
94 164 19 84 15 100 -37 140 -99 75 -182 102 -238 78z m113 -18 c23 -10 67
-36 98 -57 48 -35 54 -43 49 -65 -4 -14 -10 -50 -14 -80 -4 -31 -19 -75 -34
-102 -25 -42 -36 -49 -115 -81 -142 -57 -156 -59 -218 -36 -56 21 -94 58 -94
91 0 10 -9 36 -20 58 -42 81 -16 170 60 212 19 10 44 24 55 31 19 11 144 44
175 45 8 1 34 -7 58 -16z m-348 -303 c0 -6 -4 -7 -10 -4 -5 3 -10 11 -10 16 0
6 5 7 10 4 6 -3 10 -11 10 -16z"/>
<path d="M3254 1446 c-12 -6 -29 -18 -38 -25 -9 -7 -22 -11 -30 -8 -8 3 -30 1
-49 -4 -48 -13 -79 -66 -75 -128 3 -44 4 -46 33 -45 17 1 45 6 63 13 74 26 98
33 122 38 l25 4 -24 -20 c-13 -12 -34 -21 -47 -21 -12 0 -26 -4 -29 -10 -3 -5
-21 -10 -39 -10 -29 0 -76 -32 -76 -53 0 -11 51 -82 65 -89 7 -5 29 -1 48 7
21 8 48 12 65 9 34 -7 72 10 72 31 0 10 10 15 30 15 18 0 33 7 39 19 6 10 21
21 34 25 24 6 40 32 53 90 9 40 -11 49 -57 25 -21 -10 -58 -19 -81 -19 -40 1
-42 2 -23 16 11 8 37 17 58 21 48 7 70 28 61 57 -10 35 -31 49 -81 57 -26 4
-59 10 -73 13 -14 3 -35 -1 -46 -8z m73 -22 c4 -11 -1 -22 -12 -30 -10 -8 -13
-14 -7 -14 7 0 20 9 29 20 11 12 30 20 50 20 26 0 36 -6 48 -30 12 -24 13 -31
3 -34 -88 -27 -161 -52 -196 -67 -23 -10 -53 -19 -66 -19 -14 0 -38 -8 -55
-17 -23 -14 -33 -15 -42 -6 -18 18 -3 43 26 43 15 0 24 4 21 9 -3 5 -15 7 -25
4 -29 -8 -34 14 -12 51 15 24 31 36 56 40 41 8 53 3 65 -28 8 -19 9 -17 9 10
1 21 9 37 24 47 30 21 76 21 84 1z m158 -131 c-4 -10 -10 -31 -13 -46 -6 -40
-41 -54 -76 -32 -27 18 -56 15 -56 -6 0 -8 4 -9 13 0 19 15 53 -10 44 -34 -5
-13 -14 -15 -32 -11 -27 7 -65 -8 -65 -25 0 -6 5 -7 10 -4 6 3 10 1 10 -4 0
-20 -63 -12 -87 11 -13 12 -26 18 -30 15 -3 -4 2 -13 12 -21 18 -13 18 -14 -3
-25 -37 -20 -57 -13 -85 29 l-26 40 29 20 c15 11 40 20 53 20 14 0 28 4 31 9
7 10 66 21 66 11 0 -3 -5 -11 -12 -18 -7 -7 -8 -12 -2 -12 16 0 34 22 34 42 0
15 9 18 48 18 27 1 62 9 82 20 45 25 65 26 55 3z"/>
<path d="M4409 1473 c-21 -56 23 -295 62 -334 36 -36 112 -12 124 40 8 38 -18
143 -50 196 -25 44 -101 125 -116 125 -5 0 -14 -12 -20 -27z m50 -50 c48 -95
97 -283 73 -283 -13 0 -66 109 -80 165 -14 53 -26 155 -18 155 3 0 14 -17 25
-37z m87 -79 c29 -58 42 -152 26 -180 -13 -23 -15 -17 -32 66 -6 30 -26 93
-44 138 l-34 84 29 -28 c16 -16 41 -52 55 -80z m-46 -200 c0 -2 -4 -4 -9 -4
-13 0 -51 85 -51 112 1 15 11 1 30 -41 17 -35 30 -65 30 -67z"/>
<path d="M2183 1455 c-103 -39 -224 -139 -259 -213 -14 -30 -15 -48 -8 -111
l9 -76 39 -3 c63 -5 123 23 162 78 40 56 76 75 157 85 72 9 112 36 149 99 28
48 29 49 11 70 -11 11 -25 33 -32 47 -7 15 -24 32 -38 38 -39 18 -123 12 -190
-14z m193 -7 c22 -10 51 -58 35 -58 -5 0 -19 8 -32 18 -44 34 -85 50 -103 40
-22 -12 -36 0 -16 12 17 11 84 4 116 -12z m-146 2 c0 -10 -59 -44 -65 -38 -6
6 9 24 30 36 25 14 35 15 35 2z m145 -50 l20 -21 -39 16 c-21 9 -49 14 -62 11
-17 -5 -24 -2 -24 8 0 32 68 22 105 -14z m-115 15 c0 -16 -27 -32 -37 -21 -7
7 16 36 28 36 5 0 9 -7 9 -15z m-120 -14 c-13 -26 -36 -40 -27 -18 3 10 4 17
1 17 -6 0 -28 -53 -25 -64 4 -17 -9 -37 -19 -31 -6 4 -7 12 -3 18 4 7 6 22 5
34 -3 16 6 28 30 43 41 25 52 25 38 1z m70 2 c0 -13 -14 -27 -37 -40 -29 -17
-33 -16 -33 2 0 8 11 17 25 21 14 3 25 10 25 15 0 5 5 9 10 9 6 0 10 -3 10 -7z
m163 -25 l52 -23 -35 -6 c-33 -6 -34 -6 -6 -8 29 -1 29 -2 10 -17 -18 -14 -18
-15 6 -8 l24 7 -19 -29 c-37 -58 -82 -71 -109 -32 -19 26 -17 29 31 39 35 8
34 8 -9 4 -42 -4 -48 -2 -48 14 0 11 6 22 13 24 7 3 5 6 -5 6 -12 1 -15 6 -11
19 14 38 36 40 106 10z m-118 -38 c1 -25 9 -51 23 -69 12 -17 22 -33 22 -36 0
-11 -67 -4 -86 9 -18 14 -18 15 11 27 23 9 26 13 13 16 -20 5 -25 33 -5 33 6
0 4 5 -5 11 -30 17 -20 45 17 48 6 1 10 -17 10 -39z m-254 -60 c-45 -41 -68
-72 -42 -55 19 11 22 -15 5 -42 l-17 -28 25 29 c33 39 45 19 17 -28 -26 -44
-19 -48 9 -5 19 31 20 31 31 11 9 -18 7 -25 -14 -46 -14 -15 -22 -26 -18 -26
13 1 73 59 73 71 0 9 37 4 49 -7 10 -9 -33 -56 -64 -71 -27 -13 -43 -14 -72
-7 -35 9 -38 12 -35 42 1 18 -2 31 -7 28 -5 -3 -11 8 -15 25 -7 35 18 104 34
94 5 -3 10 1 10 11 0 9 17 32 38 51 30 28 38 31 41 17 2 -11 -16 -35 -48 -64z
m129 65 c0 -8 -7 -15 -15 -15 -16 0 -20 12 -8 23 11 12 23 8 23 -8z m70 -10
c0 -14 -4 -25 -10 -25 -11 0 -14 33 -3 43 11 11 13 8 13 -18z m-35 -25 c0 -7
-6 -15 -12 -17 -8 -3 -13 4 -13 17 0 13 5 20 13 18 6 -3 12 -11 12 -18z m-124
-33 c-16 -16 -26 0 -10 19 9 11 15 12 17 4 2 -6 -1 -17 -7 -23z m90 23 c3 -20
4 -25 12 -37 4 -6 3 -14 -2 -18 -6 -3 -15 4 -22 16 -10 20 -12 20 -21 6 -12
-23 -28 -22 -28 1 0 25 58 55 61 32z m79 -10 c0 -5 -7 -10 -15 -10 -8 0 -15
-5 -15 -11 0 -6 -5 -9 -11 -7 -13 4 -13 23 0 23 5 0 13 3 17 8 11 10 24 9 24
-3z m-203 -39 c-3 -13 0 -18 8 -15 17 7 30 -15 17 -28 -16 -16 -54 32 -40 50
15 18 21 15 15 -7z m56 5 c6 -15 -1 -26 -15 -26 -4 0 -8 9 -8 20 0 23 15 27
23 6z m125 -49 c-18 -10 -40 -25 -48 -33 -9 -7 -21 -10 -29 -5 -17 11 0 38 42
68 29 21 32 21 49 6 17 -15 17 -17 -14 -36z m-70 25 c2 -7 -3 -12 -12 -12 -9
0 -16 7 -16 16 0 17 22 14 28 -4z m-31 -28 c-9 -9 -28 6 -21 18 4 6 10 6 17
-1 6 -6 8 -13 4 -17z m-22 -24 c0 -22 -29 -18 -33 3 -3 14 1 18 15 15 10 -2
18 -10 18 -18z"/>
<path d="M2318 1353 c6 -2 18 -2 25 0 6 3 1 5 -13 5 -14 0 -19 -2 -12 -5z"/>
<path d="M4015 1426 c-22 -33 -15 -60 32 -121 21 -27 58 -87 83 -134 49 -93
70 -112 98 -95 31 20 62 76 62 114 0 113 -111 246 -215 258 -38 4 -45 1 -60
-22z m90 0 c27 -11 32 -19 28 -35 -7 -26 40 -101 63 -101 13 0 15 7 10 32 -6
30 -6 31 13 14 32 -29 51 -81 51 -139 0 -31 -3 -58 -7 -60 -5 -3 -19 10 -33
29 -30 40 -50 44 -50 9 0 -43 -24 -27 -58 38 -18 34 -48 81 -67 105 -36 45
-45 88 -23 110 16 16 31 15 73 -2z"/>
<path d="M1355 1340 c-3 -5 -21 -10 -38 -10 -18 0 -43 -7 -55 -16 -13 -9 -26
-13 -29 -10 -3 3 -15 -1 -27 -9 -11 -8 -32 -15 -46 -15 -14 0 -50 -15 -80 -32
-68 -41 -93 -87 -96 -173 -1 -33 -5 -68 -9 -77 -10 -25 1 -49 25 -55 11 -3 20
-11 20 -17 0 -18 61 -73 93 -85 16 -6 41 -11 58 -11 40 0 123 33 160 64 17 14
37 26 45 26 8 0 20 5 27 10 29 25 85 61 115 75 17 8 32 19 32 23 0 4 20 29 44
56 30 32 49 64 56 95 21 84 19 91 -30 122 -37 23 -61 29 -130 34 -47 3 -95 8
-107 10 -12 3 -25 1 -28 -5z m122 -26 c3 -8 -1 -23 -10 -31 -13 -13 -24 -14
-57 -7 -40 9 -40 9 -25 32 20 27 82 31 92 6z m-107 -4 c0 -19 -29 -28 -69 -23
-38 5 -42 8 -27 18 17 13 96 17 96 5z m200 -11 c9 -16 8 -24 -5 -39 -14 -15
-22 -17 -48 -8 -41 14 -40 11 -26 42 16 33 63 36 79 5z m71 -36 c15 -41 6 -53
-38 -46 -21 3 -40 7 -41 9 -8 6 43 64 55 64 7 0 18 -12 24 -27z m-436 -23
c-16 -15 -28 -18 -58 -13 -49 8 -43 25 14 39 53 14 72 2 44 -26z m116 11 c4
-52 -8 -64 -52 -50 -19 6 -40 13 -47 15 -17 5 13 51 36 56 30 7 62 -4 63 -21z
m103 -7 c4 -9 0 -27 -8 -39 -11 -17 -21 -20 -50 -17 -20 2 -36 5 -36 7 0 1 5
16 11 34 9 26 16 31 44 31 21 0 35 -6 39 -16z m81 -2 c32 -23 35 -39 15 -65
-20 -25 -21 -25 -59 -10 l-40 15 17 34 c15 33 43 44 67 26z m-426 -44 c-6 -13
-16 -28 -21 -35 -11 -13 -38 -6 -38 10 0 18 32 47 52 47 16 0 17 -3 7 -22z
m99 -5 c15 -21 15 -23 -7 -53 -17 -21 -23 -23 -43 -13 -12 6 -30 14 -40 16
-15 5 -15 8 0 42 15 33 20 36 47 31 16 -4 36 -14 43 -23z m79 -1 c21 -13 26
-57 7 -73 -14 -11 -72 -14 -83 -4 -2 2 5 22 15 44 18 39 36 49 61 33z m366
-14 c3 -12 1 -30 -4 -40 -9 -17 -12 -17 -25 -3 -9 8 -29 15 -45 15 -29 0 -29
0 -13 25 22 34 79 36 87 3z m-244 -15 c6 -12 5 -26 -5 -46 -14 -25 -18 -27
-52 -21 -20 4 -39 8 -41 10 -6 5 21 57 34 66 18 14 54 8 64 -9z m85 -38 c8
-43 -8 -80 -32 -69 -9 4 -29 9 -43 11 l-27 5 25 44 c18 32 31 44 48 44 18 0
24 -7 29 -35z m-444 -15 c0 -10 -4 -22 -10 -25 -6 -4 -10 7 -10 25 0 18 4 29
10 25 6 -3 10 -15 10 -25z m550 9 c9 -16 8 -26 -5 -45 -16 -25 -25 -28 -63
-18 -20 6 -22 11 -16 38 3 17 12 34 18 38 21 14 55 8 66 -13z m-457 -17 c12
-24 12 -31 -1 -50 -13 -20 -15 -20 -50 -4 -21 9 -38 17 -39 17 -2 1 3 16 9 33
17 43 60 45 81 4z m112 -23 c9 -27 -13 -69 -35 -69 -10 0 -31 3 -47 6 l-30 6
21 39 c18 33 26 39 53 39 24 0 33 -5 38 -21z m95 -8 c6 -13 7 -28 0 -45 -8
-22 -13 -24 -47 -19 -21 3 -39 7 -41 8 -2 2 4 19 12 39 12 28 21 36 40 36 15
0 30 -8 36 -19z m79 -17 c27 -6 31 -10 31 -40 0 -39 -30 -63 -49 -40 -7 8 -23
17 -36 20 -23 6 -23 7 -9 36 17 33 17 33 63 24z m-348 -14 c2 -14 5 -22 13
-43 9 -19 -9 -47 -29 -47 -14 0 -35 50 -35 81 0 14 7 19 25 19 14 0 26 -4 26
-10z m455 -1 c5 -9 -56 -72 -63 -65 -1 1 3 19 9 39 11 37 39 50 54 26z m-344
-52 c12 -19 9 -44 -6 -56 -11 -10 -24 -10 -54 0 l-40 12 20 34 c18 29 25 33
47 28 14 -4 29 -12 33 -18z m113 -11 c9 -13 13 -31 9 -42 -14 -38 -23 -42 -67
-32 -23 5 -43 10 -44 12 -9 8 29 75 44 79 35 9 43 7 58 -17z m-275 -2 c0 -8
-4 -12 -10 -9 -5 3 -10 10 -10 16 0 5 5 9 10 9 6 0 10 -7 10 -16z m364 -7 c16
-12 14 -16 -29 -51 -25 -21 -48 -36 -50 -34 -3 2 0 20 7 39 6 19 12 40 14 47
4 16 35 16 58 -1z m-286 -43 c12 -4 22 -13 22 -20 0 -8 7 -17 15 -20 15 -6 21
-34 7 -34 -20 0 -81 54 -82 73 0 8 8 9 38 1z m157 -45 c14 -14 -6 -29 -48 -36
-39 -6 -56 10 -43 43 5 13 14 15 44 9 20 -3 41 -11 47 -16z"/>
<path d="M2648 1270 c-111 -59 -131 -225 -38 -304 35 -29 46 -32 136 -41 l62
-6 38 53 c58 78 63 90 64 129 1 135 -146 230 -262 169z m101 -4 c28 2 43 -2
56 -16 20 -22 14 -50 -10 -50 -9 0 -13 -5 -9 -11 4 -8 -1 -9 -15 -4 -16 5 -22
3 -20 -7 1 -7 1 -24 0 -38 -1 -21 -3 -22 -12 -10 -8 11 -12 12 -16 3 -6 -17
-24 -17 -17 0 3 8 -3 20 -12 28 -15 12 -16 12 -10 -7 6 -19 2 -22 -35 -28 -25
-4 -46 -3 -53 4 -7 7 -6 10 5 10 10 1 10 3 -3 11 -25 14 -22 26 10 37 17 7 21
11 10 11 -24 1 -22 12 7 39 25 24 78 44 83 32 1 -4 20 -6 41 -4z m120 -72 c14
-24 21 -52 21 -90 0 -51 -3 -59 -39 -94 -21 -21 -41 -44 -43 -51 -7 -20 -98
60 -115 98 -17 43 -17 55 5 52 47 -4 62 1 62 24 0 14 11 28 32 40 31 18 33 18
45 1 7 -10 13 -13 13 -7 0 7 -4 15 -10 18 -12 8 -13 45 -1 45 5 0 18 -16 30
-36z m-255 -88 c12 5 16 0 16 -18 0 -13 7 -33 15 -44 16 -22 19 -34 7 -34 -5
0 -15 11 -22 25 -7 14 -15 23 -17 21 -13 -13 37 -60 91 -86 l61 -29 -43 -1
c-53 0 -93 20 -125 62 -39 52 -49 139 -12 108 7 -6 20 -8 29 -4z m61 -26 c3
-16 16 -41 27 -55 25 -32 12 -53 -22 -35 -12 6 -19 14 -16 17 3 3 14 0 23 -8
10 -8 3 3 -14 24 -34 39 -44 87 -19 87 8 0 17 -13 21 -30z"/>
<path d="M2638 1183 c-16 -2 -28 -8 -28 -13 0 -5 10 -7 23 -5 20 4 21 3 4 -9
-17 -13 -16 -14 6 -12 19 1 24 6 23 23 0 13 -1 22 -1 21 0 0 -12 -3 -27 -5z"/>
<path d="M2853 1100 c0 -25 2 -35 4 -22 2 12 2 32 0 45 -2 12 -4 2 -4 -23z"/>
<path d="M3706 1170 c-71 -63 -58 -116 45 -177 l71 -42 53 30 c66 37 75 48 82
98 11 78 -46 121 -156 121 -53 0 -65 -4 -95 -30z m184 -2 c83 -43 75 -121 -17
-173 l-48 -27 -50 28 c-73 39 -95 62 -95 99 0 31 35 75 70 88 35 13 98 6 140
-15z"/>
<path d="M810 1181 c-66 -8 -87 -19 -128 -65 -34 -40 -33 -68 4 -92 20 -14 26
-13 62 5 58 29 100 68 122 112 23 45 24 49 8 48 -7 -1 -38 -5 -68 -8z m43 -43
c-23 -40 -110 -108 -138 -108 -52 0 -58 44 -12 87 46 44 66 52 120 53 l49 0
-19 -32z"/>
<path d="M57 1163 c-14 -13 -6 -25 8 -13 12 10 18 10 30 0 9 -7 14 -19 11 -26
-3 -8 0 -11 8 -8 16 6 40 -21 31 -36 -3 -5 0 -10 8 -10 8 0 22 -9 32 -20 15
-16 16 -22 5 -35 -11 -13 -10 -14 4 -9 19 7 56 -21 56 -44 0 -12 -3 -12 -17
-1 -10 7 -3 -2 16 -20 l35 -33 -25 -19 c-24 -18 -24 -18 -1 -12 12 3 29 0 37
-7 19 -16 19 -50 1 -50 -8 0 -18 -5 -22 -11 -4 -8 0 -9 15 -4 16 5 24 1 31
-17 9 -19 9 -15 5 19 -5 42 -38 118 -56 129 -5 3 -9 14 -9 24 0 11 -10 29 -22
42 -13 13 -41 46 -63 73 -64 81 -99 107 -118 88z"/>
<path d="M375 1146 c-41 -30 13 -178 71 -192 38 -10 78 24 82 68 3 30 -3 40
-52 86 -58 55 -71 60 -101 38z m25 -27 c0 -11 -4 -17 -10 -14 -5 3 -10 13 -10
21 0 8 5 14 10 14 6 0 10 -9 10 -21z m83 -39 c41 -45 46 -69 18 -94 -32 -29
-72 -17 -97 29 -33 60 -40 89 -21 82 19 -7 42 17 32 34 -16 24 33 -11 68 -51z"/>
<path d="M22 1119 c-30 -11 -29 -55 3 -94 14 -16 25 -25 25 -19 0 6 -9 19 -20
29 -21 19 -27 60 -9 70 5 4 19 -1 30 -11 21 -19 26 -7 7 18 -10 12 -19 14 -36
7z"/>
<path d="M4760 1080 c0 -5 5 -10 10 -10 6 0 10 5 10 10 0 6 -4 10 -10 10 -5 0
-10 -4 -10 -10z"/>
<path d="M4728 1063 c-4 -20 13 -102 25 -120 12 -20 23 -15 24 9 2 17 0 19 -7
8 -15 -24 -25 17 -11 47 11 24 11 25 -5 12 -15 -13 -16 -11 -12 24 4 37 -7 53
-14 20z"/>
<path d="M2262 986 c-23 -8 -58 -26 -78 -41 -38 -29 -94 -100 -94 -120 0 -7
13 -28 29 -48 15 -20 31 -55 35 -78 8 -49 51 -138 71 -146 25 -9 58 4 100 40
22 19 54 37 70 41 45 11 63 33 76 92 9 42 9 66 -1 113 -28 131 -100 182 -208
147z m133 -28 c19 -17 27 -35 30 -67 5 -49 15 -68 16 -30 0 22 1 23 9 4 12
-28 12 -145 0 -145 -5 0 -10 15 -10 33 0 23 -3 28 -9 18 -8 -12 -17 -7 -48 23
-68 67 -114 88 -183 84 -33 -1 -60 0 -60 3 0 3 12 17 28 31 72 68 177 89 227
46z m-134 -95 c22 -4 56 -29 107 -79 80 -79 89 -107 42 -131 -32 -16 -41 -6
-12 15 20 16 21 21 12 49 -17 47 -112 115 -177 125 -69 11 -107 -3 -101 -37 4
-20 3 -23 -8 -14 -8 6 -14 22 -14 35 0 18 7 25 28 30 15 3 32 7 37 9 17 6 51
5 86 -2z m-72 -50 c1 12 9 17 27 17 21 0 25 -3 19 -17 -4 -10 -9 -31 -11 -48
-2 -16 -1 -21 2 -10 9 36 26 75 33 75 3 0 12 -4 19 -8 10 -7 7 -19 -13 -53
-13 -24 -24 -55 -24 -69 1 -23 2 -22 8 5 8 31 38 95 46 95 16 0 95 -65 95 -78
0 -34 -65 -123 -104 -144 -14 -8 -17 -7 -10 3 4 8 9 22 9 32 1 14 -5 11 -31
-14 l-32 -31 -16 53 c-9 29 -16 59 -16 66 0 7 -7 13 -15 13 -12 0 -15 13 -15
58 0 62 9 86 21 55 7 -17 8 -17 8 0z"/>
<path d="M2225 921 c-3 -5 -1 -12 5 -16 5 -3 10 1 10 9 0 18 -6 21 -15 7z"/>
<path d="M2401 814 c0 -11 3 -14 6 -6 3 7 2 16 -1 19 -3 4 -6 -2 -5 -13z"/>
<path d="M2305 624 c-9 -15 -12 -23 -6 -20 11 7 35 46 28 46 -3 0 -12 -12 -22
-26z"/>
<path d="M50 985 c0 -5 5 -17 10 -25 5 -8 10 -10 10 -5 0 6 -5 17 -10 25 -5 8
-10 11 -10 5z"/>
<path d="M1 964 c0 -11 3 -14 6 -6 3 7 2 16 -1 19 -3 4 -6 -2 -5 -13z"/>
<path d="M1 916 c-2 -29 31 -90 59 -111 l25 -18 -24 26 c-15 17 -22 33 -18 47
4 15 0 20 -13 20 -13 0 -20 9 -23 28 -2 15 -5 19 -6 8z"/>
<path d="M4008 900 c-70 -44 -82 -67 -75 -148 9 -112 19 -119 106 -82 61 27
82 63 89 150 4 63 3 68 -23 88 -35 28 -40 28 -97 -8z m94 -7 c12 -10 18 -30
18 -56 0 -39 -1 -40 -16 -21 -14 18 -15 16 -9 -25 7 -56 -12 -86 -71 -112 -25
-10 -49 -19 -54 -19 -10 0 -30 88 -30 130 0 28 42 90 61 90 5 0 9 -12 10 -27
1 -28 1 -28 8 3 4 17 11 36 15 42 10 17 47 15 68 -5z"/>
<path d="M165 910 c3 -5 8 -10 11 -10 2 0 4 5 4 10 0 6 -5 10 -11 10 -5 0 -7
-4 -4 -10z"/>
<path d="M180 880 c0 -9 20 -48 45 -88 25 -40 45 -77 45 -82 0 -17 -15 -11
-30 11 -8 12 -23 31 -32 43 -14 17 -14 13 2 -19 18 -34 27 -85 16 -85 -21 0
-79 35 -85 53 -5 12 -15 37 -22 55 -10 29 -14 31 -22 17 -6 -12 -6 -20 2 -25
7 -4 20 -22 29 -41 10 -21 32 -41 55 -52 41 -19 57 -16 57 13 0 13 5 17 20 13
16 -4 20 0 20 17 0 19 2 21 15 10 13 -10 18 -11 28 -1 9 10 8 11 -5 6 -11 -5
-20 -2 -24 8 -3 8 -22 33 -43 54 -20 22 -44 55 -54 74 -9 19 -17 27 -17 19z
m100 -141 c0 -6 -4 -7 -10 -4 -5 3 -10 11 -10 16 0 6 5 7 10 4 6 -3 10 -11 10
-16z"/>
<path d="M4393 881 c-41 -7 -70 -21 -44 -21 7 0 -4 -15 -23 -34 -20 -18 -36
-40 -36 -47 1 -8 7 -2 15 12 18 34 55 58 108 69 23 4 52 11 64 15 18 6 22 2
29 -27 4 -18 9 -28 11 -22 2 6 -1 23 -6 37 -11 29 -30 32 -118 18z"/>
<path d="M131 843 c7 -12 15 -20 18 -17 3 2 -3 12 -13 22 -17 16 -18 16 -5 -5z"/>
<path d="M2989 845 c-14 -8 -38 -33 -53 -56 -75 -112 8 -264 154 -284 25 -3
54 -8 66 -10 15 -3 29 9 59 53 36 52 40 64 43 133 5 89 -10 126 -60 157 -40
25 -167 29 -209 7z m210 -23 c24 -17 51 -68 51 -99 0 -23 -27 -71 -63 -113
l-27 -32 -55 22 c-103 42 -136 122 -78 191 49 58 112 70 172 31z m-177 -17
c-38 -43 -49 -92 -29 -131 22 -42 48 -62 114 -89 l58 -24 39 45 c21 25 40 43
43 40 5 -5 -22 -59 -51 -101 -12 -16 -21 -31 -22 -33 -4 -10 -155 72 -178 96
-78 83 -57 232 32 232 24 0 24 0 -6 -35z m-35 -208 c16 -16 51 -41 78 -54 l50
-25 -39 6 c-81 11 -156 94 -156 172 l1 39 19 -54 c11 -30 32 -68 47 -84z"/>
<path d="M4291 834 c-12 -15 -21 -32 -21 -38 0 -6 9 3 19 20 11 18 25 34 33
37 8 3 9 6 1 6 -6 1 -21 -11 -32 -25z"/>
<path d="M1731 819 c-69 -49 -85 -111 -57 -218 18 -65 29 -78 105 -119 78 -42
144 -44 201 -6 81 54 88 105 21 150 -37 24 -40 25 -76 10 -21 -9 -46 -16 -58
-16 -17 0 -19 5 -14 35 3 19 15 48 26 64 27 37 27 71 0 105 -30 38 -92 36
-148 -5z m131 4 c24 -21 23 -68 -2 -108 -26 -42 -36 -115 -20 -145 10 -19 18
-22 51 -17 21 3 51 14 68 26 47 33 71 24 71 -28 0 -29 -74 -80 -124 -87 -39
-6 -55 -2 -111 27 -85 43 -94 54 -111 132 -20 86 -8 134 44 176 48 41 64 40
25 -1 -33 -36 -58 -77 -50 -85 3 -2 11 6 17 19 18 34 92 108 109 108 8 0 23
-7 33 -17z m118 -207 c0 -34 -122 -62 -134 -31 -4 11 1 15 17 15 12 1 33 7 47
15 32 18 70 19 70 1z"/>
<path d="M672 819 c-60 -30 -102 -94 -102 -154 0 -82 56 -155 119 -155 11 0
23 -4 26 -10 8 -14 101 -13 128 1 53 29 94 128 83 201 -17 119 -18 122 -61
130 -78 14 -148 9 -193 -13z m148 1 c0 -5 -18 -10 -40 -10 -65 0 -117 -29
-168 -94 -17 -22 -22 -25 -22 -11 0 29 46 81 92 104 45 22 138 29 138 11z m84
-68 c29 -106 14 -138 -20 -42 l-18 50 -55 0 c-133 -1 -208 -94 -156 -194 19
-36 14 -42 -19 -21 -35 23 -50 72 -34 116 34 99 95 133 269 148 12 1 21 -16
33 -57z m-26 -67 c24 -66 24 -104 -1 -135 -60 -78 -175 -60 -212 32 -38 95 26
164 155 167 34 1 36 0 58 -64z"/>
<path d="M3547 813 c-74 -11 -125 -120 -115 -245 9 -105 81 -234 156 -279 36
-21 52 -18 52 10 0 10 15 44 34 74 46 78 63 161 46 235 -6 31 -21 78 -32 105
-21 48 -78 108 -101 106 -7 -1 -25 -4 -40 -6z m85 -40 c94 -101 103 -303 18
-413 -23 -30 -36 -21 -62 43 -9 23 -17 34 -17 24 -1 -10 11 -40 25 -68 32 -65
26 -88 -9 -29 -51 89 -70 165 -71 287 -1 79 3 116 12 125 10 10 11 -1 6 -58
-4 -39 -3 -78 2 -87 6 -10 9 7 10 51 2 89 19 152 43 152 9 0 29 -12 43 -27z
m-124 -35 c-5 -24 -8 -90 -6 -148 3 -58 3 -99 1 -92 -10 29 -20 9 -12 -25 15
-64 8 -70 -16 -18 -18 39 -24 68 -24 128 -1 50 3 76 9 72 13 -8 13 8 0 21 -12
12 3 56 28 87 24 28 31 20 20 -25z m56 -396 c9 -18 14 -32 11 -32 -10 0 -65
124 -64 145 0 11 9 -3 18 -31 10 -27 26 -64 35 -82z"/>
<path d="M3635 720 c3 -5 8 -10 11 -10 2 0 4 5 4 10 0 6 -5 10 -11 10 -5 0 -7
-4 -4 -10z"/>
<path d="M3580 710 c0 -5 5 -10 10 -10 6 0 10 5 10 10 0 6 -4 10 -10 10 -5 0
-10 -4 -10 -10z"/>
<path d="M3650 630 c0 -5 5 -10 10 -10 6 0 10 5 10 10 0 6 -4 10 -10 10 -5 0
-10 -4 -10 -10z"/>
<path d="M3602 595 c0 -16 2 -22 5 -12 2 9 2 23 0 30 -3 6 -5 -1 -5 -18z"/>
<path d="M3620 510 c0 -19 3 -21 12 -12 9 9 9 15 0 24 -9 9 -12 7 -12 -12z"/>
<path d="M3677 513 c-4 -3 -7 -11 -7 -17 0 -6 5 -5 12 2 6 6 9 14 7 17 -3 3
-9 2 -12 -2z"/>
<path d="M3641 424 c0 -11 3 -14 6 -6 3 7 2 16 -1 19 -3 4 -6 -2 -5 -13z"/>
<path d="M3475 561 c-3 -5 -1 -12 5 -16 5 -3 10 1 10 9 0 18 -6 21 -15 7z"/>
<path d="M4521 794 c0 -11 3 -14 6 -6 3 7 2 16 -1 19 -3 4 -6 -2 -5 -13z"/>
<path d="M4261 767 c-4 -66 89 -148 163 -146 l41 2 -45 6 c-25 4 -55 13 -68
20 -27 14 -62 68 -62 94 0 10 -4 16 -9 12 -5 -3 -12 3 -14 12 -4 16 -5 16 -6
0z"/>
<path d="M4381 743 c-45 -55 -40 -83 10 -57 35 18 63 58 55 79 -9 25 -33 17
-65 -22z m59 13 c0 -17 -49 -66 -66 -66 -20 0 -18 9 12 47 26 34 54 44 54 19z"/>
<path d="M4527 729 c-4 -25 -17 -56 -29 -69 -13 -13 -16 -21 -7 -18 21 6 51
73 47 105 -3 23 -5 19 -11 -18z"/>
<path d="M1278 714 c-87 -17 -117 -33 -160 -86 -49 -61 -58 -80 -58 -133 0
-58 21 -109 54 -130 60 -40 116 -7 116 67 0 74 52 127 145 148 27 6 55 16 62
22 26 21 7 103 -26 112 -45 12 -72 12 -133 0z m122 -14 c8 -5 11 -10 5 -10
-118 -3 -261 -76 -295 -153 -11 -23 -20 -58 -21 -77 l-1 -35 -10 34 c-5 19 -7
49 -3 67 7 41 84 137 122 153 64 26 177 38 203 21z m20 -39 c0 -11 -18 -17
-80 -26 -46 -7 -110 -39 -110 -56 0 -4 16 3 36 16 20 14 45 25 54 25 9 0 39 3
65 7 71 9 54 -16 -25 -38 -87 -24 -140 -77 -140 -141 0 -78 -45 -111 -88 -65
-32 34 -36 70 -16 129 19 52 55 86 129 126 54 28 175 44 175 23z"/>
<path d="M2676 549 c-20 -15 -26 -29 -26 -58 0 -73 92 -210 176 -262 70 -43
75 6 18 183 -33 100 -74 158 -113 158 -15 0 -40 -9 -55 -21z m106 -31 c16 -26
50 -108 44 -108 -2 0 -18 24 -35 53 -17 28 -39 63 -48 76 -17 24 -17 24 3 13
12 -6 28 -21 36 -34z m19 -103 c22 -44 42 -98 45 -120 l5 -40 -26 30 c-32 37
-125 222 -125 249 0 36 58 -33 101 -119z m-78 21 c25 -52 60 -116 77 -141 42
-61 12 -47 -53 24 -52 58 -92 149 -83 186 4 14 8 25 11 25 2 0 24 -42 48 -94z"/>
<path d="M4673 550 c-3 -13 -13 -19 -27 -17 -19 2 -21 -2 -19 -54 2 -70 42
-157 100 -218 24 -24 46 -42 49 -39 3 4 -12 22 -33 42 -65 58 -143 256 -101
256 16 0 102 -53 112 -69 4 -6 13 -11 19 -11 7 1 -8 18 -31 39 -33 29 -40 40
-29 44 9 3 27 -3 41 -14 l26 -20 -2 27 c-4 44 -95 74 -105 34z m37 -10 c0 -5
-4 -10 -10 -10 -5 0 -10 5 -10 10 0 6 5 10 10 10 6 0 10 -4 10 -10z"/>
<path d="M0 534 c0 -4 18 -23 40 -42 23 -19 49 -51 59 -71 25 -49 36 -123 22
-150 -18 -32 -26 -25 -28 22 -2 51 -35 142 -63 176 -28 32 -38 19 -11 -15 27
-34 27 -53 1 -29 -11 10 -20 14 -20 8 0 -5 9 -18 21 -29 30 -27 59 -88 59
-123 0 -39 -26 -64 -56 -57 -15 4 -24 2 -24 -5 0 -18 79 -4 109 19 54 39 34
165 -37 244 -35 38 -72 65 -72 52z"/>
<path d="M271 483 c-27 -22 -33 -72 -12 -97 19 -22 109 -62 157 -70 26 -3 60
0 90 9 27 8 59 15 72 15 27 0 29 14 3 32 -10 7 -25 27 -34 44 -23 45 -92 76
-181 82 -60 4 -75 1 -95 -15z m195 -22 c35 -15 59 -35 77 -61 14 -22 23 -42
19 -44 -4 -2 -30 -11 -59 -19 -53 -16 -93 -11 -175 21 -65 26 -88 86 -45 117
30 22 116 15 183 -14z"/>
<path d="M3955 451 c-96 -59 -120 -162 -61 -252 82 -123 289 -98 326 40 20 75
-22 166 -95 208 -51 29 -128 31 -170 4z m142 -6 c48 -20 71 -41 94 -87 56
-110 -13 -220 -140 -222 -105 -1 -171 62 -171 165 0 54 3 63 36 99 52 57 114
73 181 45z"/>
<path d="M4156 253 c-8 -19 8 -38 23 -29 16 10 13 46 -3 46 -8 0 -17 -8 -20
-17z"/>
<path d="M1397 433 c-31 -36 -23 -91 23 -158 33 -47 70 -65 135 -65 59 0 67
13 53 91 -15 86 -36 114 -102 133 -69 20 -89 20 -109 -1z m82 -34 c23 -33 23
-33 17 -6 -5 21 -3 27 9 27 49 0 81 -48 91 -134 l7 -56 -60 0 c-69 0 -87 13
-108 82 -10 33 -14 37 -15 18 l-1 -25 -14 25 c-22 38 -19 76 7 94 29 20 38 17
67 -25z"/>
<path d="M2369 401 c-55 -54 -64 -92 -28 -112 25 -13 76 -1 142 32 31 16 37
24 37 52 0 49 -24 77 -67 77 -30 0 -44 -9 -84 -49z m121 19 c39 -39 25 -70
-44 -99 -52 -23 -91 -28 -80 -10 4 8 -1 9 -16 4 -16 -5 -21 -4 -18 6 3 8 14
13 24 12 18 -1 18 -1 2 11 -16 12 -14 16 20 48 55 53 81 59 112 28z"/>
<path d="M830 342 c-25 -16 -50 -39 -57 -53 -21 -41 -43 -102 -40 -106 11 -11
106 20 147 48 60 41 77 69 64 107 -14 39 -57 41 -114 4z m100 -1 c15 -28 13
-38 -12 -62 -60 -57 -158 -100 -158 -69 0 37 37 95 79 121 53 34 76 36 91 10z"/>
<path d="M3186 304 c-9 -8 -16 -18 -16 -22 0 -4 -21 -30 -47 -57 -33 -35 -54
-68 -65 -106 -20 -62 -23 -119 -8 -119 6 0 10 19 10 41 0 69 21 120 72 173 27
28 51 58 54 68 10 32 29 18 57 -42 28 -62 38 -109 10 -52 -29 60 -93 53 -137
-16 -38 -61 -62 -172 -36 -172 6 0 10 22 10 48 0 84 69 183 117 168 11 -4 26
-18 34 -33 15 -28 19 -125 6 -160 -6 -18 -5 -23 7 -23 21 0 31 40 31 120 0 54
-6 77 -33 133 -18 37 -37 67 -42 67 -5 0 -16 -7 -24 -16z"/>
<path d="M4449 256 c-76 -27 -153 -109 -184 -195 -18 -51 -19 -61 -5 -61 6 0
10 9 10 20 0 36 62 150 82 150 5 0 7 -4 4 -9 -4 -5 -1 -11 6 -13 8 -3 7 -16
-6 -49 -32 -77 -36 -99 -20 -99 8 0 14 10 14 25 0 65 72 192 125 221 46 24 55
11 16 -22 -38 -32 -94 -110 -89 -125 2 -6 18 11 35 38 17 26 43 59 57 72 l26
24 45 -24 c42 -23 58 -50 36 -64 -6 -3 -13 -27 -16 -53 -5 -34 -14 -53 -33
-69 -18 -15 -22 -23 -12 -23 31 1 51 28 57 79 7 60 17 70 44 45 21 -19 25 -58
9 -98 -8 -23 -7 -26 10 -26 17 0 20 7 20 54 0 34 -5 58 -14 65 -8 6 -19 24
-26 40 -6 15 -29 38 -51 50 -22 13 -45 31 -52 42 -14 22 -37 23 -88 5z m-51
-70 c-13 -19 -24 -33 -26 -31 -5 4 37 65 44 65 2 0 -6 -15 -18 -34z"/>
<path d="M2063 241 c-94 -43 -96 -154 -3 -201 21 -11 47 -20 57 -20 31 0 84
39 97 73 16 41 9 121 -12 140 -29 26 -92 29 -139 8z m15 -69 c3 -9 -3 -13 -19
-10 -12 1 -24 9 -27 16 -3 9 3 13 19 10 12 -1 24 -9 27 -16z m37 -22 c3 -5 1
-10 -4 -10 -6 0 -11 5 -11 10 0 6 2 10 4 10 3 0 8 -4 11 -10z m-22 -41 c15
-16 27 -36 27 -44 0 -20 -28 -31 -43 -16 -6 6 -19 11 -29 11 -12 0 -18 8 -18
24 0 13 -5 26 -12 28 -7 3 -9 12 -5 22 9 24 44 13 80 -25z"/>
<path d="M1061 198 c-69 -36 -191 -154 -191 -185 1 -16 2 -16 13 3 42 75 180
183 253 198 48 11 111 -19 141 -67 14 -22 38 -51 54 -64 20 -17 29 -34 29 -54
0 -16 5 -29 10 -29 25 0 -3 88 -46 145 -33 44 -112 85 -165 85 -20 0 -61 -14
-98 -32z"/>
<path d="M280 166 c0 -13 8 -34 18 -47 10 -13 23 -36 30 -52 6 -15 18 -27 26
-27 9 0 20 -9 26 -20 6 -11 20 -20 33 -19 22 0 22 0 -2 10 -19 8 -21 12 -11
24 13 16 6 19 -32 16 -9 -1 -22 7 -27 18 -15 27 -14 34 4 28 8 -4 17 -2 20 3
4 6 -3 10 -13 10 -30 0 -67 34 -59 54 6 15 10 15 43 1 20 -8 45 -15 55 -15 12
0 19 -7 19 -18 0 -9 20 -38 44 -63 36 -38 54 -48 97 -57 30 -5 55 -9 57 -7 8
8 -32 55 -51 61 -11 4 -51 28 -88 55 -45 33 -77 49 -97 49 -17 0 -34 5 -37 10
-3 6 -17 10 -31 10 -19 0 -24 -5 -24 -24z m207 -76 c32 -22 64 -40 71 -40 6 0
12 -7 12 -15 0 -20 -6 -19 -54 6 -35 17 -109 89 -92 89 3 0 32 -18 63 -40z"/>
<path d="M1080 152 c-16 -15 -30 -32 -30 -38 0 -6 -22 -25 -50 -42 -37 -23
-50 -37 -49 -54 l0 -23 9 22 c5 13 24 32 42 43 30 18 34 18 56 4 27 -18 40
-13 17 6 -39 32 8 90 74 90 42 0 48 -8 31 -41 -14 -25 2 -25 18 1 7 11 18 17
27 14 21 -8 19 -43 -2 -51 -25 -8 -94 -83 -78 -83 8 0 23 13 33 28 11 15 32
34 46 41 66 36 27 90 -76 104 -31 5 -43 1 -68 -21z"/>
<path d="M2480 143 c0 -29 -3 -34 -12 -25 -14 14 -28 16 -28 3 0 -5 8 -11 18
-15 9 -3 22 -9 29 -12 9 -4 10 5 6 32 -7 40 0 40 40 5 17 -14 20 -14 38 9 l19
25 40 -44 c22 -25 40 -48 40 -52 0 -4 -28 -6 -63 -6 -46 2 -73 -3 -101 -18
-34 -18 -39 -18 -49 -4 -14 18 -33 14 -62 -11 -11 -10 -33 -20 -50 -23 -28 -4
-28 -4 6 -6 27 -1 40 4 51 20 10 16 19 20 37 14 14 -4 20 -12 17 -21 -6 -17
20 -19 30 -3 4 8 9 7 15 -2 7 -11 9 -10 9 3 0 17 37 44 47 35 2 -3 0 -16 -7
-29 -9 -19 -7 -18 10 5 13 16 31 27 45 27 27 0 43 -19 25 -30 -8 -5 -5 -9 9
-13 18 -4 20 -2 14 21 -5 21 -3 24 13 20 11 -3 25 1 32 9 10 10 10 13 -2 13
-9 0 -20 9 -26 21 -15 27 -71 78 -87 79 -6 0 -15 -9 -18 -20 -8 -24 -18 -25
-35 -4 -8 8 -22 20 -32 25 -16 9 -18 5 -18 -28z"/>
<path d="M4481 144 c-22 -28 -27 -59 -12 -69 5 -3 12 -1 16 5 13 21 27 10 20
-17 -9 -36 -10 -37 -47 -38 -18 0 -33 -6 -36 -14 -3 -10 0 -11 9 -5 8 4 26 7
41 5 31 -3 51 25 46 67 -2 19 -8 27 -20 26 -24 -2 -23 15 4 43 12 13 17 23 10
23 -6 0 -20 -12 -31 -26z"/>
<path d="M3647 120 c-22 -19 -46 -30 -65 -30 -17 0 -32 -6 -35 -14 -3 -8 -16
-16 -28 -18 -15 -2 -25 -13 -30 -31 -4 -15 -3 -27 2 -27 5 0 9 9 9 20 0 11 7
20 15 20 8 0 24 9 35 20 11 11 33 20 48 20 17 0 38 10 51 24 25 26 98 41 118
24 17 -14 17 -48 -1 -48 -14 0 -71 -68 -64 -76 3 -2 19 12 37 31 17 19 36 35
41 35 5 0 12 10 16 22 9 30 -27 58 -77 58 -28 0 -47 -8 -72 -30z"/>
<path d="M1743 128 c-16 -20 -33 -78 -32 -107 l1 -26 8 25 c4 14 11 36 14 50
12 50 20 54 63 27 23 -15 48 -42 58 -64 10 -21 20 -32 22 -26 7 21 -34 79 -77
107 -46 30 -45 30 -57 14z"/>
<path d="M3675 75 c-16 -20 -30 -40 -30 -45 0 -6 -7 -15 -15 -21 -12 -8 -11
-10 5 -7 11 2 21 11 23 21 4 22 47 66 76 77 20 8 20 9 -4 9 -16 0 -35 -11 -55
-34z"/>
<path d="M4317 94 c-4 -4 -7 -14 -7 -23 0 -11 3 -12 11 -4 6 6 10 16 7 23 -2
6 -7 8 -11 4z"/>
<path d="M1241 57 c-24 -12 -49 -57 -31 -57 5 0 11 9 15 19 5 17 31 32 60 35
5 1 12 -10 15 -23 3 -14 11 -26 17 -28 7 -3 9 4 6 19 -12 48 -36 59 -82 35z"/>
<path d="M2739 36 c27 -29 33 -32 25 -13 -2 7 -14 19 -27 26 -21 13 -21 12 2
-13z"/>
<path d="M2580 19 c0 -5 5 -7 10 -4 6 3 10 8 10 11 0 2 -4 4 -10 4 -5 0 -10
-5 -10 -11z"/>
<path d="M4371 14 c0 -11 3 -14 6 -6 3 7 2 16 -1 19 -3 4 -6 -2 -5 -13z"/>
<path d="M4285 10 c-3 -5 -1 -10 4 -10 6 0 11 5 11 10 0 6 -2 10 -4 10 -3 0
-8 -4 -11 -10z"/>
<path d="M3838 3 c6 -2 18 -2 25 0 6 3 1 5 -13 5 -14 0 -19 -2 -12 -5z"/>
</g>
</svg>
